<svg width="391" height="400" viewBox="0 0 391 400" fill="none" xmlns="http://www.w3.org/2000/svg">
<path d="M347.278 212.12H326.571V221.072H347.278V212.12Z" fill="#EBEBEB"/>
<path d="M347.278 29.408H326.571V38.36H347.278V29.408Z" fill="#EBEBEB"/>
<path d="M358.829 40.696H338.121V49.648H358.829V40.696Z" fill="#EBEBEB"/>
<path d="M52.8789 29.4239H32.1715V38.3759H52.8789V29.4239Z" fill="#EBEBEB"/>
<path d="M152.169 136.52H172.877V127.568H152.169V136.52Z" fill="#EBEBEB"/>
<path d="M163.72 125.232H184.427V116.28H163.72V125.232Z" fill="#EBEBEB"/>
<path d="M248.461 84.8149C253.236 74.5401 248.966 62.2504 238.922 57.365C228.878 52.4796 216.865 56.8485 212.09 67.1233C207.314 77.398 211.585 89.6878 221.628 94.5732C231.672 99.4586 243.685 95.0896 248.461 84.8149Z" fill="#EBEBEB"/>
<path d="M238.424 94.6122C248.253 90.5192 252.977 79.0504 248.976 68.9958C244.975 58.9413 233.764 54.1084 223.936 58.2014C214.108 62.2943 209.383 73.7632 213.384 83.8177C217.385 93.8723 228.596 98.7051 238.424 94.6122Z" fill="#DBDBDB"/>
<path d="M237.975 93.4707C247.182 89.6327 251.604 78.8858 247.852 69.4668C244.101 60.0479 233.596 55.5237 224.389 59.3618C215.182 63.1998 210.759 73.9467 214.511 83.3656C218.263 92.7845 228.768 97.3087 237.975 93.4707Z" fill="white"/>
<path opacity="0.5" d="M248.778 72.512C240.575 77.592 227.108 85.928 219.578 90.496C217.447 88.6614 215.763 86.3442 214.659 83.728L239.558 60.12C241.885 61.3733 243.915 63.1319 245.508 65.2724C247.101 67.413 248.217 69.8839 248.778 72.512Z" fill="#EBEBEB"/>
<path opacity="0.5" d="M249.169 77.064C249.102 79.1126 248.701 81.1354 247.98 83.048L225.529 93.912C224.55 93.5788 223.6 93.1613 222.69 92.664C229.478 88.656 241.865 81.36 249.169 77.064Z" fill="#EBEBEB"/>
<path d="M231.355 59.344H231.011V62.136H231.355V59.344Z" fill="#C7C7C7"/>
<path d="M222.985 61.5326L222.68 61.7126L224.044 64.1305L224.349 63.9506L222.985 61.5326Z" fill="#C7C7C7"/>
<path d="M216.797 67.7132L216.625 68.018L218.988 69.414L219.16 69.1092L216.797 67.7132Z" fill="#C7C7C7"/>
<path d="M217.216 76.24H214.487V76.592H217.216V76.24Z" fill="#C7C7C7"/>
<path d="M219.002 83.4074L216.638 84.8034L216.81 85.1082L219.174 83.7123L219.002 83.4074Z" fill="#C7C7C7"/>
<path d="M224.052 88.7127L222.689 91.1314L222.993 91.3112L224.357 88.8926L224.052 88.7127Z" fill="#C7C7C7"/>
<path d="M231.355 90.704H231.011V93.496H231.355V90.704Z" fill="#C7C7C7"/>
<path d="M239.272 89.057L238.966 89.237L240.33 91.666L240.636 91.486L239.272 89.057Z" fill="#C7C7C7"/>
<path d="M243.345 83.3999L243.173 83.7048L245.537 85.1008L245.709 84.7959L243.345 83.3999Z" fill="#C7C7C7"/>
<path d="M247.878 76.24H245.149V76.592H247.878V76.24Z" fill="#C7C7C7"/>
<path d="M245.552 67.7281L243.189 69.1241L243.361 69.429L245.724 68.033L245.552 67.7281Z" fill="#C7C7C7"/>
<path d="M239.369 61.5267L238.006 63.9454L238.31 64.1252L239.674 61.7066L239.369 61.5267Z" fill="#C7C7C7"/>
<path d="M231.441 60.6L232.035 77.664L230.33 77.64L230.979 60.6H231.441Z" fill="#C7C7C7"/>
<path d="M241.834 70.472L230.612 77.8L229.799 76.264L241.607 70.056L241.834 70.472Z" fill="#A6A6A6"/>
<path d="M231.761 76.416C231.762 76.4944 231.748 76.5722 231.72 76.645C231.691 76.7177 231.648 76.784 231.595 76.8398C231.541 76.8956 231.477 76.9399 231.406 76.9702C231.335 77.0004 231.259 77.016 231.183 77.016C231.1 77.0257 231.017 77.0176 230.938 76.9921C230.859 76.9666 230.787 76.9243 230.725 76.868C230.663 76.8118 230.614 76.7427 230.58 76.6655C230.546 76.5883 230.529 76.5046 230.529 76.42C230.529 76.3354 230.546 76.2517 230.58 76.1745C230.614 76.0972 230.663 76.0282 230.725 75.9719C230.787 75.9157 230.859 75.8734 230.938 75.8479C231.017 75.8224 231.1 75.8142 231.183 75.824C231.336 75.824 231.483 75.8864 231.592 75.9974C231.7 76.1084 231.761 76.259 231.761 76.416Z" fill="#C7C7C7"/>
<path d="M357.507 71.376H270.392V182.576H357.507V71.376Z" fill="#EBEBEB"/>
<path d="M353.777 75.304H274.13V178.72H353.777V75.304Z" fill="white"/>
<path d="M304.237 103.552C297.692 102.856 292.812 111.24 288.597 124.352C284.382 137.464 284.812 144.888 285.367 147.04C285.923 149.192 288.222 153.736 292.757 154.24C297.293 154.744 300.663 151.224 303.095 149.216C305.527 147.208 310.477 146.296 311.51 141.704C312.542 137.112 310.728 121.704 310.438 118.888C310.149 116.072 310.04 104.176 304.237 103.552Z" fill="#DBDBDB"/>
<path d="M309.43 142.896C308.241 145.64 303.572 145.888 302.134 147.552C300.695 149.216 296.589 152.648 293.406 152.84C290.224 153.032 287.854 149.336 287.049 147.424C286.454 146.024 286.196 141.344 287.432 134.312C287.953 131.342 288.637 128.404 289.481 125.512C290.185 123.07 291.013 120.667 291.96 118.312C295.002 110.768 298.505 106.232 300.953 105.384C309.117 102.584 308.061 114.984 308.929 120.248C309.218 122 309.5 124.776 309.711 127.8C309.821 129.504 309.914 131.296 309.969 133.032C310.11 137.496 310 141.6 309.43 142.896Z" fill="#EBEBEB"/>
<path d="M293.446 120.112C293.446 120.004 293.419 119.899 293.368 119.804C293.317 119.71 293.244 119.631 293.154 119.574C293.065 119.517 292.963 119.485 292.858 119.479C292.753 119.474 292.648 119.496 292.554 119.544C292.327 119.687 292.133 119.879 291.987 120.107C291.841 120.335 291.746 120.594 291.71 120.864C291.616 121.288 291.71 122 292.265 121.936C292.624 121.888 292.851 121.504 293.047 121.216C293.294 120.902 293.434 120.515 293.446 120.112Z" fill="#DBDBDB"/>
<path d="M294.126 115.728C293.705 116.055 293.424 116.537 293.344 117.072C293.219 117.488 293.031 118.24 293.649 118.328C294.142 118.392 294.384 117.832 294.54 117.464C294.733 117.073 294.86 116.651 294.916 116.216C294.92 116.119 294.899 116.023 294.855 115.938C294.811 115.852 294.744 115.781 294.663 115.731C294.582 115.681 294.49 115.654 294.395 115.653C294.3 115.653 294.207 115.679 294.126 115.728Z" fill="#DBDBDB"/>
<path d="M295.447 118.896C295.431 118.831 295.401 118.77 295.358 118.718C295.316 118.666 295.263 118.625 295.203 118.597C295.142 118.57 295.077 118.556 295.011 118.558C294.945 118.56 294.88 118.577 294.822 118.608C294.52 118.774 294.28 119.037 294.139 119.357C293.998 119.676 293.963 120.034 294.04 120.376C294.058 120.447 294.091 120.513 294.137 120.569C294.183 120.625 294.241 120.67 294.307 120.699C294.372 120.729 294.443 120.744 294.515 120.742C294.586 120.74 294.657 120.722 294.72 120.688C294.995 120.49 295.209 120.217 295.337 119.9C295.466 119.583 295.504 119.234 295.447 118.896Z" fill="#DBDBDB"/>
<path d="M297.496 114.2C297.513 114.1 297.5 113.997 297.461 113.904C297.421 113.812 297.355 113.733 297.272 113.677C297.189 113.622 297.092 113.593 296.993 113.593C296.894 113.594 296.797 113.624 296.714 113.68C296.415 113.902 296.183 114.206 296.045 114.557C295.907 114.908 295.868 115.292 295.932 115.664C295.968 115.764 296.04 115.846 296.133 115.892C296.227 115.938 296.334 115.945 296.433 115.912C296.731 115.734 296.983 115.486 297.168 115.188C297.353 114.89 297.466 114.552 297.496 114.2Z" fill="#DBDBDB"/>
<path d="M295.432 112.624C295.139 112.79 294.906 113.048 294.767 113.36C294.609 113.647 294.566 113.986 294.65 114.304C294.66 114.342 294.678 114.378 294.703 114.408C294.728 114.438 294.759 114.462 294.794 114.478C294.829 114.494 294.868 114.502 294.906 114.501C294.945 114.5 294.983 114.49 295.017 114.472C295.289 114.33 295.525 114.124 295.704 113.871C295.883 113.618 296.002 113.325 296.05 113.016C296.104 112.68 295.682 112.496 295.432 112.624Z" fill="#DBDBDB"/>
<path d="M297.457 110.264C297.165 110.402 296.915 110.618 296.733 110.89C296.551 111.162 296.445 111.479 296.425 111.808C296.425 111.891 296.445 111.973 296.484 112.046C296.523 112.119 296.58 112.18 296.649 112.224C296.718 112.268 296.797 112.294 296.878 112.298C296.959 112.302 297.04 112.285 297.113 112.248C297.594 111.884 297.922 111.346 298.028 110.744C298.048 110.667 298.046 110.586 298.022 110.51C297.998 110.434 297.953 110.367 297.893 110.317C297.833 110.266 297.76 110.235 297.683 110.225C297.605 110.216 297.527 110.229 297.457 110.264Z" fill="#DBDBDB"/>
<path d="M299.342 108.32C299.316 108.212 299.25 108.12 299.158 108.061C299.066 108.003 298.955 107.984 298.849 108.008C298.568 108.08 298.435 108.312 298.286 108.544C298.205 108.636 298.146 108.746 298.113 108.865C298.08 108.985 298.075 109.11 298.098 109.232C298.114 109.298 298.149 109.357 298.2 109.4C298.251 109.443 298.314 109.469 298.38 109.472C298.511 109.472 298.639 109.438 298.754 109.374C298.869 109.309 298.966 109.217 299.037 109.104C299.116 109.019 299.189 108.928 299.256 108.832C299.35 108.68 299.38 108.496 299.342 108.32Z" fill="#DBDBDB"/>
<path d="M299.045 112.288C299.032 112.232 299.008 112.179 298.975 112.133C298.942 112.086 298.9 112.047 298.852 112.017C298.804 111.987 298.751 111.967 298.695 111.959C298.64 111.951 298.583 111.954 298.528 111.968C298.382 112.018 298.25 112.102 298.142 112.215C298.035 112.328 297.955 112.465 297.911 112.616C297.786 112.888 297.715 113.416 298.098 113.504C298.482 113.592 298.646 113.336 298.81 113.08C298.857 112.992 298.919 112.904 298.966 112.816C299.051 112.654 299.078 112.468 299.045 112.288Z" fill="#DBDBDB"/>
<path d="M297.356 116.992C297.356 116.906 297.335 116.821 297.295 116.745C297.255 116.67 297.196 116.606 297.124 116.56C297.053 116.515 296.971 116.488 296.887 116.484C296.803 116.48 296.719 116.498 296.644 116.536C296.391 116.704 296.195 116.948 296.084 117.235C295.974 117.522 295.953 117.837 296.026 118.136C296.042 118.198 296.071 118.256 296.111 118.305C296.151 118.354 296.201 118.393 296.258 118.42C296.315 118.447 296.377 118.461 296.44 118.46C296.503 118.459 296.564 118.444 296.62 118.416C296.839 118.271 297.012 118.066 297.121 117.824C297.272 117.574 297.354 117.286 297.356 116.992Z" fill="#DBDBDB"/>
<path d="M293.289 122.152C292.983 122.49 292.808 122.931 292.796 123.392C292.796 123.664 292.89 124.408 293.336 124.24C293.47 124.173 293.589 124.078 293.685 123.961C293.781 123.844 293.851 123.707 293.891 123.56C294.047 123.254 294.155 122.924 294.212 122.584C294.213 122.474 294.183 122.366 294.126 122.273C294.068 122.181 293.985 122.107 293.888 122.061C293.79 122.015 293.682 122 293.575 122.016C293.469 122.032 293.37 122.079 293.289 122.152Z" fill="#DBDBDB"/>
<path d="M291.162 123.464C290.96 123.67 290.813 123.924 290.733 124.204C290.654 124.484 290.645 124.78 290.709 125.064C290.73 125.14 290.772 125.208 290.829 125.261C290.887 125.313 290.959 125.348 291.035 125.361C291.111 125.373 291.189 125.363 291.26 125.332C291.331 125.301 291.392 125.249 291.436 125.184C291.728 124.787 291.911 124.318 291.967 123.824C291.965 123.73 291.937 123.638 291.885 123.559C291.834 123.481 291.762 123.419 291.677 123.381C291.592 123.344 291.499 123.331 291.408 123.346C291.317 123.361 291.231 123.402 291.162 123.464Z" fill="#DBDBDB"/>
<path d="M292.468 127.248C292.452 127.173 292.419 127.103 292.371 127.044C292.324 126.984 292.264 126.937 292.196 126.905C292.128 126.873 292.053 126.858 291.978 126.861C291.903 126.863 291.83 126.884 291.764 126.92C291.568 127.033 291.412 127.207 291.318 127.416C291.251 127.606 291.214 127.806 291.209 128.008C291.209 128.416 291.49 128.928 291.952 128.736C292.068 128.667 292.168 128.573 292.246 128.462C292.324 128.35 292.379 128.223 292.405 128.088C292.504 127.82 292.526 127.528 292.468 127.248Z" fill="#DBDBDB"/>
<path d="M290.192 129.76C290.192 129.674 290.168 129.59 290.122 129.517C290.077 129.445 290.012 129.387 289.935 129.352C289.858 129.317 289.773 129.304 289.69 129.317C289.606 129.33 289.528 129.367 289.465 129.424C289.315 129.571 289.203 129.754 289.139 129.957C289.075 130.159 289.06 130.375 289.098 130.584C289.117 130.659 289.155 130.728 289.208 130.784C289.261 130.84 289.327 130.882 289.4 130.904C289.473 130.926 289.55 130.929 289.625 130.913C289.699 130.896 289.768 130.86 289.825 130.808C290.066 130.515 290.197 130.143 290.192 129.76Z" fill="#DBDBDB"/>
<path d="M290.615 131.648C290.524 131.617 290.427 131.619 290.337 131.652C290.248 131.686 290.172 131.749 290.122 131.832C290.057 131.942 290.032 132.073 290.052 132.2C290.068 132.294 290.111 132.38 290.177 132.448C290.225 132.509 290.292 132.553 290.367 132.572C290.442 132.59 290.521 132.584 290.591 132.552C290.635 132.533 290.677 132.509 290.716 132.48C290.777 132.432 290.826 132.372 290.861 132.303C290.896 132.234 290.916 132.158 290.92 132.08C290.923 131.983 290.895 131.888 290.84 131.81C290.785 131.732 290.705 131.675 290.615 131.648Z" fill="#DBDBDB"/>
<path d="M301.07 106.552C300.978 106.524 300.88 106.526 300.79 106.559C300.7 106.592 300.623 106.654 300.57 106.736C300.508 106.851 300.483 106.982 300.499 107.112C300.517 107.205 300.563 107.289 300.632 107.352C300.68 107.413 300.747 107.457 300.822 107.476C300.897 107.494 300.976 107.488 301.047 107.456L301.164 107.392C301.225 107.346 301.276 107.285 301.311 107.216C301.346 107.147 301.365 107.07 301.367 106.992C301.37 106.896 301.343 106.801 301.29 106.722C301.236 106.642 301.159 106.583 301.07 106.552Z" fill="#DBDBDB"/>
<path d="M323.662 103.552C330.207 102.856 335.087 111.24 339.302 124.352C343.517 137.464 343.087 144.888 342.532 147.04C341.976 149.192 339.677 153.736 335.142 154.24C330.606 154.744 327.236 151.224 324.804 149.216C322.372 147.208 317.414 146.296 316.389 141.704C315.365 137.112 317.171 121.704 317.461 118.888C317.75 116.072 317.86 104.176 323.662 103.552Z" fill="#DBDBDB"/>
<path d="M318.47 142.896C319.65 145.64 324.327 145.888 325.766 147.552C327.204 149.216 331.31 152.648 334.493 152.84C337.675 153.032 340.045 149.336 340.85 147.424C341.445 146.024 341.703 141.344 340.467 134.312C339.946 131.342 339.262 128.404 338.418 125.512C337.714 123.07 336.886 120.667 335.939 118.312C332.897 110.768 329.394 106.232 326.946 105.384C318.782 102.584 319.838 114.984 318.97 120.248C318.681 122 318.399 124.776 318.188 127.8C318.079 129.504 317.985 131.296 317.93 133.032C317.789 137.496 317.899 141.6 318.47 142.896Z" fill="#EBEBEB"/>
<path d="M320.432 122.712C320.345 122.626 320.229 122.579 320.108 122.579C319.987 122.579 319.871 122.626 319.783 122.712C319.322 123.168 319.001 124.944 320.002 124.992C321.003 125.04 320.902 123.2 320.432 122.712Z" fill="#DBDBDB"/>
<path d="M322.184 124.8C322.118 124.734 322.03 124.697 321.938 124.697C321.846 124.697 321.757 124.734 321.691 124.8C321.485 125.054 321.349 125.361 321.298 125.687C321.247 126.014 321.283 126.349 321.402 126.656C321.457 126.762 321.541 126.85 321.644 126.908C321.747 126.966 321.864 126.992 321.982 126.983C322.099 126.974 322.211 126.929 322.304 126.856C322.397 126.782 322.467 126.682 322.505 126.568C322.61 126.271 322.636 125.95 322.579 125.639C322.523 125.329 322.386 125.039 322.184 124.8Z" fill="#DBDBDB"/>
<path d="M319.838 126.84C319.166 127.112 319.134 128.368 319.431 128.912C319.491 129.02 319.58 129.109 319.687 129.168C319.795 129.227 319.916 129.253 320.037 129.244C320.159 129.235 320.275 129.19 320.373 129.116C320.47 129.042 320.545 128.94 320.589 128.824C320.722 128.352 320.683 126.472 319.838 126.84Z" fill="#DBDBDB"/>
<path d="M321.91 130.048C321.868 129.968 321.805 129.9 321.73 129.851C321.654 129.802 321.567 129.774 321.478 129.769C321.388 129.764 321.299 129.783 321.219 129.823C321.139 129.864 321.07 129.925 321.019 130C320.892 130.18 320.814 130.39 320.792 130.611C320.77 130.831 320.805 131.054 320.894 131.256C320.943 131.346 321.014 131.422 321.1 131.477C321.186 131.531 321.284 131.562 321.385 131.567C321.486 131.572 321.587 131.55 321.677 131.504C321.768 131.458 321.845 131.389 321.903 131.304C322.009 131.113 322.066 130.897 322.067 130.677C322.069 130.457 322.015 130.24 321.91 130.048Z" fill="#DBDBDB"/>
<path d="M319.838 132.304C319.746 132.21 319.62 132.157 319.49 132.157C319.36 132.157 319.234 132.21 319.142 132.304C319.056 132.393 318.988 132.499 318.945 132.617C318.901 132.734 318.882 132.859 318.889 132.984C318.895 133.109 318.928 133.231 318.983 133.343C319.039 133.455 319.117 133.553 319.212 133.632C319.303 133.695 319.411 133.725 319.52 133.717C319.629 133.71 319.733 133.666 319.815 133.592C319.969 133.416 320.057 133.189 320.061 132.952C320.065 132.716 319.986 132.486 319.838 132.304Z" fill="#DBDBDB"/>
<path d="M320.62 134.84C320.556 134.8 320.483 134.78 320.409 134.78C320.334 134.78 320.261 134.8 320.198 134.84C320.115 134.889 320.049 134.963 320.008 135.052C319.968 135.14 319.955 135.24 319.971 135.336C319.992 135.432 320.042 135.519 320.116 135.583C320.189 135.646 320.281 135.683 320.378 135.688C320.463 135.692 320.547 135.671 320.621 135.627C320.695 135.583 320.754 135.518 320.792 135.44C320.842 135.336 320.852 135.217 320.82 135.106C320.788 134.995 320.717 134.9 320.62 134.84Z" fill="#DBDBDB"/>
<path d="M322.45 119.944C322.421 119.892 322.381 119.847 322.334 119.813C322.286 119.778 322.232 119.755 322.174 119.744C322.117 119.733 322.058 119.736 322.002 119.751C321.945 119.766 321.893 119.794 321.848 119.832C321.624 120.134 321.466 120.482 321.385 120.852C321.304 121.222 321.302 121.605 321.379 121.976C321.412 122.137 321.503 122.28 321.632 122.377C321.762 122.474 321.922 122.519 322.082 122.504C322.242 122.491 322.392 122.419 322.505 122.301C322.617 122.183 322.683 122.028 322.692 121.864C322.826 121.214 322.741 120.538 322.45 119.944Z" fill="#DBDBDB"/>
<path d="M320.894 117.864C320.85 117.781 320.777 117.719 320.689 117.69C320.602 117.662 320.507 117.67 320.425 117.712C320.195 117.858 320.004 118.058 319.868 118.297C319.731 118.535 319.654 118.804 319.643 119.08C319.572 119.568 319.557 120.376 320.143 120.536C320.73 120.696 320.98 119.952 321.042 119.48C321.178 118.94 321.125 118.369 320.894 117.864Z" fill="#DBDBDB"/>
<path d="M322.966 116.944C322.973 116.626 322.867 116.317 322.669 116.072C322.586 115.979 322.471 115.922 322.348 115.914C322.226 115.907 322.105 115.949 322.012 116.032C321.789 116.255 321.652 116.554 321.629 116.872C321.571 117.176 321.571 117.488 321.629 117.792C321.66 117.928 321.733 118.05 321.838 118.14C321.942 118.229 322.072 118.282 322.209 118.29C322.345 118.298 322.48 118.261 322.594 118.184C322.708 118.108 322.794 117.995 322.841 117.864C322.941 117.569 322.983 117.256 322.966 116.944Z" fill="#DBDBDB"/>
<path d="M321.496 113.384C321.482 113.322 321.452 113.266 321.41 113.219C321.368 113.173 321.315 113.138 321.256 113.119C321.197 113.099 321.134 113.096 321.073 113.109C321.012 113.122 320.956 113.15 320.909 113.192C320.683 113.379 320.52 113.634 320.444 113.922C320.368 114.209 320.383 114.514 320.487 114.792C320.53 114.876 320.594 114.948 320.672 114.999C320.75 115.051 320.84 115.081 320.933 115.087C321.026 115.092 321.119 115.073 321.202 115.031C321.286 114.99 321.357 114.926 321.41 114.848C321.531 114.626 321.602 114.38 321.616 114.126C321.631 113.873 321.59 113.619 321.496 113.384Z" fill="#DBDBDB"/>
<path d="M323.748 128.4C323.756 128.326 323.756 128.25 323.748 128.176C323.733 128.092 323.695 128.015 323.639 127.952C323.583 127.854 323.493 127.782 323.387 127.749C323.281 127.717 323.167 127.726 323.068 127.776C322.871 127.883 322.722 128.063 322.653 128.28C322.574 128.543 322.588 128.826 322.692 129.08C322.744 129.182 322.825 129.266 322.924 129.322C323.023 129.378 323.135 129.402 323.248 129.392C323.357 129.38 323.461 129.337 323.548 129.267C323.635 129.198 323.702 129.106 323.74 129C323.784 128.803 323.787 128.598 323.748 128.4Z" fill="#DBDBDB"/>
<path d="M324.467 123.264C324.381 122.968 324.162 122.464 323.771 122.664C323.138 122.96 323.076 124.136 323.341 124.688C323.398 124.792 323.483 124.876 323.586 124.932C323.688 124.988 323.804 125.013 323.92 125.004C324.036 124.994 324.147 124.951 324.24 124.88C324.332 124.808 324.403 124.711 324.444 124.6C324.585 124.167 324.593 123.701 324.467 123.264Z" fill="#DBDBDB"/>
<path d="M324.366 119.136C324.288 118.848 323.99 118.544 323.685 118.68C323.599 118.71 323.521 118.763 323.459 118.832C323.348 118.952 323.282 119.108 323.271 119.272C323.247 119.38 323.247 119.492 323.272 119.601C323.296 119.709 323.344 119.81 323.412 119.896C323.463 119.949 323.524 119.992 323.591 120.02C323.658 120.049 323.73 120.064 323.803 120.064C323.876 120.064 323.948 120.049 324.015 120.02C324.082 119.992 324.143 119.949 324.194 119.896C324.319 119.774 324.394 119.608 324.405 119.432C324.401 119.332 324.388 119.233 324.366 119.136Z" fill="#DBDBDB"/>
<path d="M324.03 113.144C324.03 112.832 323.772 112.216 323.365 112.288C322.958 112.36 322.716 112.864 322.661 113.224C322.602 113.449 322.605 113.686 322.67 113.909C322.735 114.133 322.859 114.333 323.029 114.488C323.105 114.537 323.193 114.563 323.283 114.563C323.373 114.563 323.461 114.537 323.537 114.488C323.728 114.329 323.874 114.12 323.961 113.884C324.047 113.648 324.071 113.393 324.03 113.144Z" fill="#DBDBDB"/>
<path d="M322.653 109.6C322.597 109.542 322.525 109.503 322.447 109.488C322.368 109.474 322.287 109.485 322.215 109.52C321.985 109.662 321.799 109.869 321.68 110.115C321.561 110.362 321.513 110.638 321.543 110.912C321.538 111.072 321.588 111.23 321.686 111.355C321.783 111.481 321.921 111.568 322.075 111.6C322.228 111.631 322.388 111.604 322.524 111.523C322.659 111.442 322.761 111.313 322.81 111.16C322.89 110.903 322.918 110.632 322.891 110.363C322.864 110.095 322.783 109.835 322.653 109.6Z" fill="#DBDBDB"/>
<path d="M323.044 107.272C323.022 107.163 322.96 107.067 322.872 107.002C322.784 106.937 322.675 106.908 322.567 106.92C322.452 106.945 322.346 107.003 322.262 107.088C322.13 107.219 322.052 107.396 322.043 107.584C322.04 107.707 322.08 107.827 322.156 107.923C322.231 108.019 322.338 108.085 322.456 108.108C322.575 108.131 322.697 108.11 322.802 108.049C322.907 107.989 322.987 107.892 323.029 107.776C323.096 107.616 323.102 107.436 323.044 107.272Z" fill="#DBDBDB"/>
<path d="M321.402 126.4C320.552 126.283 319.745 125.947 319.056 125.424L318.618 125.136C318.003 124.728 317.419 124.27 316.874 123.768L316.796 123.696C316.6 123.505 316.414 123.302 316.241 123.088C315.865 122.64 315.459 122.096 315.076 121.536C314.99 121.408 314.904 121.288 314.825 121.16C314.599 120.832 314.38 120.496 314.169 120.176C314.051 120 313.934 119.824 313.832 119.648C313.518 119.074 313.143 118.538 312.714 118.048C312.472 118.297 312.25 118.564 312.049 118.848L311.604 119.416L311.314 119.776C311.158 119.968 310.994 120.168 310.829 120.352C310.635 120.59 310.429 120.817 310.212 121.032C309.981 121.279 309.718 121.491 309.43 121.664C309.342 121.715 309.241 121.74 309.14 121.736C308.272 121.64 307.256 119.72 307.303 118.864C307.333 118.674 307.412 118.495 307.529 118.344C307.691 118.104 307.866 117.875 308.053 117.656C308.288 117.384 308.562 117.08 308.835 116.784L309.187 116.4L309.688 115.872L309.961 115.568C310.324 115.212 310.626 114.795 310.853 114.336C310.862 114.251 310.862 114.165 310.853 114.08C310.853 113.96 310.853 113.792 310.806 113.6C310.806 113.232 310.72 112.752 310.657 112.192C310.657 112.016 310.657 111.832 310.603 111.64C310.548 111.16 310.485 110.648 310.431 110.112C310.431 109.912 310.391 109.704 310.368 109.496C310.298 108.824 310.227 108.128 310.165 107.472L310.118 107.016C310.118 106.608 310.047 106.216 310.024 105.84C310 105.464 309.977 105.16 309.961 104.864C309.908 104.397 309.926 103.925 310.016 103.464C310.227 102.976 312.362 102.496 314.192 102.28C315.576 102.112 316.796 102.088 316.937 102.28C317.024 102.792 317.042 103.315 316.992 103.832C316.992 104.088 316.992 104.376 316.992 104.68C316.992 105.216 316.937 105.8 316.906 106.424C316.906 106.632 316.906 106.848 316.866 107.056C316.866 107.656 316.796 108.272 316.757 108.888C316.757 109.176 316.718 109.464 316.702 109.752C316.702 110.248 316.64 110.736 316.608 111.184C316.608 111.504 316.569 111.808 316.546 112.096C316.522 112.384 316.546 112.768 316.491 113.048C316.436 113.328 316.491 113.56 316.452 113.752C316.436 113.936 316.436 114.12 316.452 114.304C316.788 115.184 317.249 116.009 317.82 116.752C317.969 116.96 318.133 117.16 318.298 117.36C318.462 117.56 318.735 117.864 318.962 118.096C319.189 118.328 319.259 118.408 319.408 118.552C319.697 118.84 319.994 119.12 320.284 119.352L321.066 120.016L321.926 120.736L322.458 121.184C322.614 121.32 322.771 121.448 322.904 121.576C323.201 121.813 323.451 122.106 323.639 122.44C324.053 123.744 322.035 126.28 321.402 126.4Z" fill="#A6A6A6"/>
<path d="M316.999 103.912C316.999 104.168 316.999 104.456 316.999 104.76C315.826 105.032 314.606 105.176 313.457 105.352L310.767 105.784C310.524 105.784 310.29 105.864 310.055 105.888C310.055 105.536 310.008 105.208 309.993 104.912L310.853 104.72C311.682 104.544 312.519 104.4 313.355 104.272C314.561 104.068 315.778 103.947 316.999 103.912Z" fill="#C7C7C7"/>
<path d="M316.89 106.504C316.89 106.712 316.89 106.928 316.851 107.136C315.983 107.224 315.115 107.256 314.255 107.32C312.91 107.408 311.525 107.56 310.173 107.52L310.126 107.064C311.369 106.856 312.644 106.8 313.887 106.712C314.88 106.648 315.881 106.544 316.89 106.504Z" fill="#C7C7C7"/>
<path d="M316.71 108.968C316.71 109.256 316.671 109.544 316.655 109.832C314.581 110.101 312.49 110.211 310.399 110.16C310.399 109.96 310.36 109.752 310.337 109.544C312.442 109.173 314.574 108.981 316.71 108.968Z" fill="#C7C7C7"/>
<path d="M316.593 111.264C316.593 111.584 316.554 111.888 316.53 112.176C314.579 112.335 312.619 112.356 310.665 112.24C310.665 112.064 310.665 111.88 310.61 111.688C312.592 111.397 314.591 111.255 316.593 111.264Z" fill="#C7C7C7"/>
<path d="M316.475 113.128C316.475 113.408 316.475 113.64 316.436 113.832C315.693 113.904 314.943 113.944 314.208 113.992C313.089 114.064 311.971 114.168 310.861 114.128C310.861 114.008 310.861 113.84 310.814 113.648C311.815 113.48 312.823 113.424 313.84 113.344C314.708 113.272 315.592 113.184 316.475 113.128Z" fill="#C7C7C7"/>
<path d="M310.235 121.08C310.004 121.327 309.741 121.539 309.453 121.712C309.04 121.211 308.669 120.676 308.343 120.112C308.026 119.581 307.764 119.018 307.561 118.432C307.722 118.192 307.897 117.963 308.085 117.744C308.421 118.384 308.765 119.024 309.14 119.632C309.479 120.135 309.845 120.618 310.235 121.08Z" fill="#C7C7C7"/>
<path d="M311.338 119.824C311.181 120.016 311.017 120.216 310.853 120.4C310.112 119.254 309.441 118.063 308.843 116.832L309.195 116.448C309.813 117.432 310.657 118.744 311.338 119.824Z" fill="#C7C7C7"/>
<path d="M312.073 118.896L311.627 119.464C311.338 118.992 311.072 118.488 310.806 118.032C310.407 117.344 310.024 116.632 309.695 115.92L309.969 115.616C310.407 116.328 310.853 117.032 311.299 117.736C311.541 118.12 311.815 118.504 312.073 118.896Z" fill="#C7C7C7"/>
<path d="M318.274 117.44C317.011 118.503 315.643 119.429 314.192 120.2C314.075 120.024 313.957 119.848 313.856 119.672C314.755 118.928 316.554 117.624 317.766 116.832C317.946 117.04 318.11 117.24 318.274 117.44Z" fill="#C7C7C7"/>
<path d="M319.384 118.632C318.024 119.708 316.592 120.687 315.099 121.56C315.013 121.432 314.927 121.312 314.849 121.184C315.975 120.384 317.719 119.048 318.939 118.176C319.09 118.325 319.238 118.477 319.384 118.632Z" fill="#C7C7C7"/>
<path d="M321.011 120.12C319.746 121.472 318.34 122.679 316.819 123.72C316.623 123.529 316.438 123.326 316.264 123.112C317.532 121.821 318.866 120.601 320.26 119.456L321.011 120.12Z" fill="#C7C7C7"/>
<path d="M322.849 121.68C321.789 123.127 320.518 124.397 319.079 125.448L318.642 125.16C319.314 124.48 320.01 123.832 320.683 123.144C321.355 122.456 321.832 121.904 322.403 121.288C322.559 121.424 322.716 121.552 322.849 121.68Z" fill="#C7C7C7"/>
<path d="M333.367 80.16H294.533V83.176H333.367V80.16Z" fill="#C7C7C7"/>
<path d="M324.913 85.488H302.978V88.504H324.913V85.488Z" fill="#C7C7C7"/>
<path d="M195.5 367.832C286.049 367.832 359.454 361.109 359.454 352.816C359.454 344.523 286.049 337.8 195.5 337.8C104.951 337.8 31.5459 344.523 31.5459 352.816C31.5459 361.109 104.951 367.832 195.5 367.832Z" fill="#EBEBEB"/>
<path d="M29.1842 303.128H180.486L180.486 55.36L29.1842 55.36L29.1842 303.128Z" fill="#C7C7C7"/>
<path d="M36.9026 124.24L172.783 124.24V64.248L36.9026 64.248V124.24Z" fill="#A6A6A6"/>
<path d="M36.9026 195.04L172.783 195.04V135.048H36.9026V195.04Z" fill="#A6A6A6"/>
<path d="M36.9026 265.832H172.783V205.84H36.9026V265.832Z" fill="#A6A6A6"/>
<path d="M85.543 139.528H71.6234V195.04H85.543V139.528Z" fill="white"/>
<path d="M85.543 157.848H71.6234V169.048H85.543V157.848Z" fill="#389F18"/>
<path d="M85.543 173.728H71.6234V180.24H85.543V173.728Z" fill="#389F18"/>
<path d="M69.7388 139.528H55.8192V195.04H69.7388V139.528Z" fill="white"/>
<path d="M69.7388 157.848H55.8192V169.048H69.7388V157.848Z" fill="#455A64"/>
<path d="M69.7388 173.728H55.8192V180.24H69.7388V173.728Z" fill="#455A64"/>
<path d="M53.9346 139.528H40.015V195.04H53.9346V139.528Z" fill="white"/>
<path d="M53.9346 157.848H40.015V169.048H53.9346V157.848Z" fill="#389F18"/>
<path d="M53.9346 173.728H40.015V180.24H53.9346V173.728Z" fill="#389F18"/>
<path d="M39.4988 124.248H52.0421V102.896H39.4988V124.248Z" fill="white"/>
<path d="M37.7784 102.888H53.7625V99.256H37.7784V102.888Z" fill="#389F18"/>
<path d="M41.1176 120.76H50.439V107.592H41.1176V120.76Z" fill="#455A64"/>
<path d="M39.4988 98.424H52.0421V77.072H39.4988V98.424Z" fill="white"/>
<path d="M37.7784 77.064H53.7625V73.432H37.7784V77.064Z" fill="#389F18"/>
<path d="M41.1176 94.928H50.439V81.76H41.1176V94.928Z" fill="#455A64"/>
<path d="M56.5152 124.248H69.0584V102.896H56.5152V124.248Z" fill="white"/>
<path d="M54.7948 102.888H70.7788V99.256H54.7948V102.888Z" fill="#389F18"/>
<path d="M58.1261 120.76H67.4475V107.592H58.1261V120.76Z" fill="#455A64"/>
<path d="M56.5152 98.424H69.0584V77.072H56.5152V98.424Z" fill="white"/>
<path d="M54.7948 77.064H70.7788V73.432H54.7948V77.064Z" fill="#389F18"/>
<path d="M58.1261 94.928H67.4475V81.76H58.1261V94.928Z" fill="#455A64"/>
<path d="M73.5158 124.248H86.0591V102.896H73.5158V124.248Z" fill="white"/>
<path d="M71.7954 102.888H87.7795V99.256H71.7954V102.888Z" fill="#389F18"/>
<path d="M75.1268 120.76H84.4482V107.592H75.1268V120.76Z" fill="#455A64"/>
<path d="M73.5158 98.424H86.0591V77.072H73.5158V98.424Z" fill="white"/>
<path d="M71.7954 77.064H87.7795V73.432H71.7954V77.064Z" fill="#389F18"/>
<path d="M75.1268 94.928H84.4482V81.76H75.1268V94.928Z" fill="#455A64"/>
<path d="M90.5244 124.248H103.068V102.896H90.5244V124.248Z" fill="white"/>
<path d="M88.8039 102.888H104.788V99.256H88.8039V102.888Z" fill="#389F18"/>
<path d="M92.1353 120.76H101.457V107.592H92.1353V120.76Z" fill="#455A64"/>
<path d="M90.5244 98.424H103.068V77.072H90.5244V98.424Z" fill="white"/>
<path d="M88.8039 77.064H104.788V73.432H88.8039V77.064Z" fill="#389F18"/>
<path d="M92.1353 94.928H101.457V81.76H92.1353V94.928Z" fill="#455A64"/>
<path d="M170.054 195.04H155.587V179.224C155.587 178.097 156.024 177.017 156.803 176.22C157.582 175.424 158.638 174.976 159.739 174.976H165.901C167.003 174.976 168.059 175.424 168.838 176.22C169.616 177.017 170.054 178.097 170.054 179.224V195.04Z" fill="white"/>
<path d="M158.644 175.032H167.027V172.984H158.644V175.032Z" fill="white"/>
<path d="M156.51 172.984H169.162V170.8H156.51V172.984Z" fill="#389F18"/>
<path d="M157.925 190.664H170.069V179.832H157.925V190.664Z" fill="#455A64"/>
<path d="M154.359 195.04H139.892V179.224C139.892 178.097 140.329 177.017 141.108 176.22C141.887 175.424 142.943 174.976 144.044 174.976H150.207C151.308 174.976 152.364 175.424 153.143 176.22C153.922 177.017 154.359 178.097 154.359 179.224V195.04Z" fill="white"/>
<path d="M142.934 175.032H151.317V172.984H142.934V175.032Z" fill="white"/>
<path d="M140.799 172.984H153.452V170.8H140.799V172.984Z" fill="#389F18"/>
<path d="M142.207 190.664H154.351V179.832H142.207V190.664Z" fill="#455A64"/>
<path d="M138.649 195.04H124.182V179.224C124.182 178.099 124.618 177.019 125.395 176.223C126.172 175.427 127.226 174.978 128.326 174.976H134.488C135.59 174.976 136.646 175.424 137.425 176.22C138.203 177.017 138.641 178.097 138.641 179.224V195.04H138.649Z" fill="white"/>
<path d="M127.224 175.032H135.607V172.984H127.224V175.032Z" fill="white"/>
<path d="M125.089 172.984H137.741V170.8H125.089V172.984Z" fill="#389F18"/>
<path d="M126.504 190.664H138.649V179.832H126.504V190.664Z" fill="#455A64"/>
<path d="M122.946 195.04H108.479V179.224C108.479 178.097 108.917 177.017 109.695 176.22C110.474 175.424 111.53 174.976 112.631 174.976H118.809C119.911 174.976 120.967 175.424 121.745 176.22C122.524 177.017 122.962 178.097 122.962 179.224V195.04H122.946Z" fill="white"/>
<path d="M111.521 175.032H119.904V172.984H111.521V175.032Z" fill="white"/>
<path d="M109.386 172.984H122.039V170.8H109.386V172.984Z" fill="#389F18"/>
<path d="M110.794 190.664H122.938V179.832H110.794V190.664Z" fill="#455A64"/>
<path d="M107.228 195.04H92.7608V179.224C92.7608 178.097 93.1983 177.017 93.9771 176.22C94.7558 175.424 95.812 174.976 96.9133 174.976H103.075C104.177 174.976 105.233 175.424 106.012 176.22C106.79 177.017 107.228 178.097 107.228 179.224V195.04Z" fill="white"/>
<path d="M95.8107 175.032H104.194V172.984H95.8107V175.032Z" fill="white"/>
<path d="M93.6758 172.984H106.329V170.8H93.6758V172.984Z" fill="#389F18"/>
<path d="M95.0834 190.664H107.228V179.832H95.0834V190.664Z" fill="#455A64"/>
<path d="M170.054 169.968H155.587V154.152C155.587 153.025 156.024 151.945 156.803 151.148C157.582 150.352 158.638 149.904 159.739 149.904H165.901C167.003 149.904 168.059 150.352 168.838 151.148C169.616 151.945 170.054 153.025 170.054 154.152V169.968Z" fill="white"/>
<path d="M158.644 149.96H167.027V147.912H158.644V149.96Z" fill="white"/>
<path d="M156.51 147.92H169.162V145.736H156.51V147.92Z" fill="#389F18"/>
<path d="M157.925 165.6H170.069V154.768H157.925V165.6Z" fill="#455A64"/>
<path d="M154.359 169.968H139.892V154.152C139.892 153.025 140.329 151.945 141.108 151.148C141.887 150.352 142.943 149.904 144.044 149.904H150.207C151.308 149.904 152.364 150.352 153.143 151.148C153.922 151.945 154.359 153.025 154.359 154.152V169.968Z" fill="white"/>
<path d="M142.934 149.96H151.317V147.912H142.934V149.96Z" fill="white"/>
<path d="M140.799 147.92H153.452V145.736H140.799V147.92Z" fill="#389F18"/>
<path d="M142.207 165.6H154.351V154.768H142.207V165.6Z" fill="#455A64"/>
<path d="M138.649 169.968H124.182V154.152C124.182 153.025 124.619 151.945 125.398 151.148C126.177 150.352 127.233 149.904 128.334 149.904H134.496C135.597 149.904 136.654 150.352 137.432 151.148C138.211 151.945 138.649 153.025 138.649 154.152V169.968Z" fill="white"/>
<path d="M127.224 149.96H135.607V147.912H127.224V149.96Z" fill="white"/>
<path d="M125.089 147.92H137.741V145.736H125.089V147.92Z" fill="#389F18"/>
<path d="M126.504 165.6H138.649V154.768H126.504V165.6Z" fill="#455A64"/>
<path d="M122.946 169.968H108.479V154.152C108.479 153.025 108.917 151.945 109.695 151.148C110.474 150.352 111.53 149.904 112.631 149.904H118.809C119.911 149.904 120.967 150.352 121.745 151.148C122.524 151.945 122.962 153.025 122.962 154.152V169.968H122.946Z" fill="white"/>
<path d="M111.521 149.96H119.904V147.912H111.521V149.96Z" fill="white"/>
<path d="M109.386 147.92H122.039V145.736H109.386V147.92Z" fill="#389F18"/>
<path d="M110.794 165.6H122.938V154.768H110.794V165.6Z" fill="#455A64"/>
<path d="M107.228 169.968H92.7608V154.152C92.7608 153.025 93.1983 151.945 93.9771 151.148C94.7558 150.352 95.812 149.904 96.9133 149.904H103.075C104.177 149.904 105.233 150.352 106.012 151.148C106.79 151.945 107.228 153.025 107.228 154.152V169.968Z" fill="white"/>
<path d="M95.8107 149.96H104.194V147.912H95.8107V149.96Z" fill="white"/>
<path d="M93.6758 147.92H106.329V145.736H93.6758V147.92Z" fill="#389F18"/>
<path d="M95.0834 165.6H107.228V154.768H95.0834V165.6Z" fill="#455A64"/>
<path d="M137.233 265.72H105.609V238.976C105.609 237.809 106.062 236.69 106.869 235.865C107.675 235.04 108.769 234.576 109.91 234.576H132.932C134.073 234.576 135.167 235.04 135.973 235.865C136.78 236.69 137.233 237.809 137.233 238.976V265.72Z" fill="white"/>
<path d="M105.609 234.576H137.233V229.176H105.609V234.576Z" fill="#263238"/>
<path d="M119.411 230.472H123.439C124.397 230.472 125.175 229.677 125.175 228.696V227.36C125.175 226.379 124.397 225.584 123.439 225.584H119.411C118.453 225.584 117.675 226.379 117.675 227.36V228.696C117.675 229.677 118.453 230.472 119.411 230.472Z" fill="#263238"/>
<path d="M107.33 258.888H135.521V244.472H107.33V258.888Z" fill="#455A64"/>
<path d="M104.123 265.72H72.4992V238.976C72.4992 237.809 72.9524 236.69 73.759 235.865C74.5656 235.04 75.6595 234.576 76.8002 234.576H99.8223C100.963 234.576 102.057 235.04 102.864 235.865C103.67 236.69 104.123 237.809 104.123 238.976V265.72Z" fill="white"/>
<path d="M72.4992 234.576H104.123V229.176H72.4992V234.576Z" fill="#263238"/>
<path d="M86.2937 230.472H90.321C91.2798 230.472 92.0571 229.677 92.0571 228.696V227.36C92.0571 226.379 91.2798 225.584 90.321 225.584H86.2937C85.3349 225.584 84.5577 226.379 84.5577 227.36V228.696C84.5577 229.677 85.3349 230.472 86.2937 230.472Z" fill="#263238"/>
<path d="M74.2118 258.888H102.403V244.472H74.2118V258.888Z" fill="#455A64"/>
<path d="M170.288 265.72H138.664V238.976C138.664 237.809 139.117 236.69 139.924 235.865C140.731 235.04 141.825 234.576 142.965 234.576H165.987C167.128 234.576 168.222 235.04 169.029 235.865C169.835 236.69 170.288 237.809 170.288 238.976V265.72Z" fill="white"/>
<path d="M138.664 234.576H170.288V229.176H138.664V234.576Z" fill="#263238"/>
<path d="M152.459 230.472H156.486C157.445 230.472 158.222 229.677 158.222 228.696V227.36C158.222 226.379 157.445 225.584 156.486 225.584H152.459C151.5 225.584 150.723 226.379 150.723 227.36V228.696C150.723 229.677 151.5 230.472 152.459 230.472Z" fill="#263238"/>
<path d="M140.377 258.888H168.568V244.472H140.377V258.888Z" fill="#455A64"/>
<path d="M71.0056 265.72H39.3815V238.976C39.3815 237.809 39.8347 236.69 40.6413 235.865C41.4479 235.04 42.5418 234.576 43.6825 234.576H66.7046C67.8453 234.576 68.9393 235.04 69.7459 235.865C70.5525 236.69 71.0056 237.809 71.0056 238.976V265.72Z" fill="white"/>
<path d="M39.3815 234.576H71.0056V229.176H39.3815V234.576Z" fill="#263238"/>
<path d="M53.1838 230.472H57.2111C58.1699 230.472 58.9472 229.677 58.9472 228.696V227.36C58.9472 226.379 58.1699 225.584 57.2111 225.584H53.1838C52.225 225.584 51.4478 226.379 51.4478 227.36V228.696C51.4478 229.677 52.225 230.472 53.1838 230.472Z" fill="#263238"/>
<path d="M41.1019 258.888H69.293V244.472H41.1019V258.888Z" fill="#455A64"/>
<path d="M107.807 124.248H125.933V100.256H107.807V124.248Z" fill="white"/>
<path d="M107.799 100.256H125.933L122.453 95.36H111.279L107.799 100.256Z" fill="white"/>
<path d="M109.214 95.36H124.526V90.6H109.214V95.36Z" fill="#455A64"/>
<path d="M110.395 116.376H125.933V105.592H110.395V116.376Z" fill="#389F18"/>
<path d="M128.506 124.248H146.633V100.256H128.506V124.248Z" fill="white"/>
<path d="M128.514 100.256H146.641L143.161 95.36H131.986L128.514 100.256Z" fill="white"/>
<path d="M129.921 95.36H145.233V90.6H129.921V95.36Z" fill="#455A64"/>
<path d="M131.102 116.376H146.641V105.592H131.102V116.376Z" fill="#389F18"/>
<path d="M149.213 124.248H167.34V100.256H149.213V124.248Z" fill="white"/>
<path d="M149.221 100.256H167.348L163.868 95.36H152.693L149.221 100.256Z" fill="white"/>
<path d="M150.629 95.36H165.94V90.6H150.629V95.36Z" fill="#455A64"/>
<path d="M151.81 116.376H167.348V105.592H151.81V116.376Z" fill="#389F18"/>
<path d="M26.588 303.128L68.816 302.936L111.044 302.864L195.5 302.728L279.956 302.864L322.184 302.936L364.412 303.128L322.184 303.32L279.956 303.392L195.5 303.528L111.044 303.392L68.816 303.32L26.588 303.128Z" fill="#263238"/>
<path d="M199.895 295.256C199.895 295.256 203.922 325.6 203.922 325.656C204 331.456 204.165 336.544 204.485 339.168C204.481 339.181 204.481 339.195 204.485 339.208C204.494 339.83 204.647 340.442 204.931 340.992C204.928 341.005 204.928 341.019 204.931 341.032C206.636 342.176 251.984 342.936 253.579 342.416C255.174 341.896 253.845 337.224 252.109 335.752C250.373 334.28 233.13 326.056 233.13 326.056L228.813 295.728L199.895 295.256Z" fill="#DD6A57"/>
<path d="M203.985 329.352C204.079 333.56 204.235 337.096 204.493 339.136C204.488 339.149 204.488 339.163 204.493 339.176C204.497 339.798 204.647 340.41 204.931 340.96C204.931 340.96 204.931 340.96 204.931 341C206.636 342.144 251.984 342.896 253.579 342.384C255.174 341.872 253.845 337.192 252.109 335.728C251.272 335.024 246.893 332.776 242.553 330.624C243.929 331.728 245.313 333.088 244.68 333.64C243.609 334.608 216.106 333.6 203.985 329.352Z" fill="#263238"/>
<path d="M240.074 329.352C240.074 329.352 232.051 325.616 218.287 332.376L240.074 329.352Z" fill="#263238"/>
<path d="M202.663 316.168L231.675 315.52L212.751 163.816H182.832L202.663 316.168Z" fill="#DD6A57"/>
<path d="M185.92 295.704C185.92 295.704 182.12 324.632 182.12 324.648C182.12 330.456 181.956 335.544 181.643 338.168C181.646 338.181 181.646 338.195 181.643 338.208C181.639 338.831 181.494 339.444 181.22 340C179.524 341.16 138.992 342.216 137.428 341.712C135.864 341.208 137.131 336.512 138.86 335.04C140.588 333.568 152.936 325.216 152.936 325.216L157.698 294.904L185.92 295.704Z" fill="#DD6A57"/>
<path d="M137.39 341.744C138.954 342.248 179.477 341.192 181.182 340.04C181.182 340.04 181.182 340.04 181.182 339.992C181.465 339.442 181.615 338.83 181.62 338.208C181.623 338.192 181.623 338.176 181.62 338.16C181.948 335.113 182.089 332.049 182.042 328.984C175.426 333.272 158.308 335.184 152.865 333.96C148.04 332.88 149.096 328.904 150.113 327.112C146.383 329.656 140.009 334.032 138.789 335.072C137.092 336.544 135.794 341.24 137.39 341.744Z" fill="#263238"/>
<path d="M150.144 327.112C150.144 327.112 163.774 324.84 173.088 332.376L150.144 327.112Z" fill="#263238"/>
<path d="M210.03 163.784C209.912 164.344 208.035 173.24 206.12 180.88C204.704 186.48 203.25 191.368 202.421 191.872C201.425 192.496 200.378 193.032 199.293 193.472L183.293 315.744L154.476 315.088L169.749 183.328L173.362 163.784H210.03Z" fill="#DD6A57"/>
<path d="M171.899 163.872H213.486L225.763 257.08C225.763 257.08 205.869 262.256 193.647 262.128C181.424 262 159.7 255.2 159.7 255.2L171.899 163.872Z" fill="#263238"/>
<path d="M192.888 88.272C191.672 88.6817 190.58 89.406 189.718 90.3746C188.857 91.3431 188.254 92.5231 187.969 93.8C187.626 95.4993 187.08 97.1491 186.343 98.712C185.449 100.201 184.348 101.548 183.074 102.712C181.095 104.515 179.694 106.888 179.055 109.52C178.288 112.578 178.113 115.761 178.538 118.888C178.282 115.623 178.638 112.337 179.586 109.208C180.54 106.064 182.495 104.304 184.544 102.136C186.193 100.43 187.381 98.3158 187.993 96C188.242 94.5234 188.681 93.087 189.299 91.728C190.203 90.3319 191.497 89.2473 193.013 88.616C193.201 88.504 193.076 88.2 192.888 88.272Z" fill="#263238"/>
<path d="M214.268 109.216C212.978 106.64 211.57 104.416 211.031 101.368C210.53 98.608 210.428 95.768 209.912 93.016C209.912 92.968 209.85 93.016 209.858 93.016C210.554 97.872 210.163 102.616 212.344 106.944C213.64 109.23 214.651 111.673 215.355 114.216C215.973 117.049 216.092 119.972 215.707 122.848C215.707 122.952 215.816 122.968 215.84 122.848C216.892 118.256 216.336 113.432 214.268 109.216Z" fill="#263238"/>
<path d="M198.683 131.2C201.029 139.016 210.882 164.456 218.514 166.84C223.519 168.44 244.281 168.112 248.23 163.432C249.951 161.392 248.566 146.024 245.775 146.392C242.983 146.76 226.287 147.584 224.309 146.808C222.33 146.032 208.583 126.808 203.265 121.912C194.092 113.408 197.408 126.984 198.683 131.2Z" fill="#DD6A57"/>
<path d="M239.628 144.8L238.221 167.592C238.221 167.592 221.65 169.256 214.894 165.904C206.69 161.832 197.338 133.192 196.126 128.528C194.163 120.872 195.461 116.528 199.324 118.128C200.825 118.728 202.718 120.224 204.954 122.784C207.191 125.344 220.524 142.4 224.942 145.88C227.406 147.816 239.628 144.8 239.628 144.8Z" fill="#EBEBEB"/>
<path d="M234.162 166.24C234.272 162.864 235.218 149.072 235.617 146.104C235.617 145.904 235.781 145.872 235.781 146.104C235.687 156.224 234.569 162.952 234.295 166.256C234.287 166.32 234.162 166.328 234.162 166.24Z" fill="#263238"/>
<path d="M231.23 167.944C225.873 168.056 218.764 167.784 214.894 165.864C206.69 161.792 197.338 133.152 196.126 128.488C194.163 120.832 195.461 116.488 199.324 118.088L199.684 118.248L231.23 167.944Z" fill="#263238"/>
<path d="M212.36 151.44L215.637 174.472C215.637 174.472 178.945 175.024 169.835 174.368C169.835 174.368 177.264 131.312 187.039 120.432C191.934 114.992 197.682 115.4 201.349 119.208C202.28 120.168 213.345 135.128 214.51 140.848C215.55 145.888 212.36 151.44 212.36 151.44Z" fill="#389F18"/>
<path d="M191.121 117.248C191.121 117.248 198.018 133.296 198.432 146.312C199.543 181.224 194.773 238.856 193.123 243.008C190.855 248.704 156.752 254.368 156.752 254.368C156.752 254.368 166.761 168.432 175.841 142.368C184.255 118.168 191.121 117.248 191.121 117.248Z" fill="#EBEBEB"/>
<path d="M168.13 198.664C167.974 203.792 168.2 209.6 169.272 210.664C171.274 212.664 176.591 212.496 178.265 212.488C179.938 212.48 185.897 212.488 187.297 209.288C187.915 207.904 188.079 200.736 188.079 198.2C188.079 197.168 187.844 192.104 187.766 191.536C187.766 191.408 187.398 191.416 187.383 191.536C187.297 192.12 187.383 194.224 187.32 194.624C177.725 195.88 171.782 194.832 168.701 194.224C168.701 193.272 168.701 192.536 168.701 191.592C171.702 192.155 174.745 192.449 177.796 192.472C181.129 192.401 184.457 192.158 187.766 191.744C187.844 191.744 187.766 191.36 187.672 191.36C186.421 191.36 182.081 191.816 177.717 191.816C174.594 191.752 171.476 191.503 168.38 191.072C168.193 191.112 168.185 196.2 168.13 198.664ZM169.85 210.08C168.795 208.84 168.662 205.28 168.662 203.112C168.662 200.16 168.662 197.8 168.662 194.848C174.791 196.139 181.105 196.226 187.266 195.104C187.266 195.232 187.328 201.456 187.266 203.44C187.195 205.976 187.117 208.24 186.163 209.584C185.381 210.712 183.035 211.848 177.764 211.84C173.948 211.832 170.726 211.12 169.835 210.08H169.85Z" fill="#A6A6A6"/>
<path d="M213.611 243.536C215.496 248.112 226.78 251.2 226.78 251.2L212.563 151.016C214.366 148.004 215.07 144.436 214.549 140.944C213.595 135.344 202.092 119.024 200.231 118.184C202.152 126.594 203.485 135.133 204.219 143.736C207.41 178.952 211.547 238.56 213.611 243.536Z" fill="#EBEBEB"/>
<path d="M210.921 133.336C209.897 131.664 208.849 130.008 207.84 128.328C207.84 128.28 207.887 128.224 207.918 128.272C208.943 129.648 209.944 131.048 210.937 132.448C210.608 131.696 210.288 130.944 209.99 130.176C209.99 130.088 210.076 130.016 210.123 130.104C210.577 131.088 210.991 132.096 211.39 133.104C212.276 134.371 213.061 135.708 213.736 137.104C215.199 139.959 215.639 143.248 214.98 146.4C214.769 147.288 214.462 148.149 214.065 148.968C213.791 149.52 212.907 150.728 212.915 150.76C213.494 154.04 213.924 157.36 214.377 160.664C214.831 163.968 215.3 167.352 215.676 170.704C215.895 172.6 216.035 174.52 216.301 176.408C216.301 176.48 216.207 176.504 216.2 176.408C215.965 174.76 215.613 173.128 215.324 171.488C215.034 169.848 214.768 168.208 214.542 166.56C214.018 163.232 213.556 159.896 213.087 156.56C212.821 154.672 212.524 152.792 212.305 150.896C212.614 150.182 212.969 149.49 213.369 148.824C213.689 148.125 213.951 147.4 214.151 146.656C214.571 145.141 214.701 143.557 214.534 141.992C214.174 138.856 212.563 136 210.921 133.336Z" fill="#263238"/>
<path d="M200.317 118.552C201.073 119.587 201.842 120.611 202.624 121.624C203.406 122.632 204.188 123.656 204.97 124.664V124.424L203.039 126.24L202.882 126.392L203.054 126.536C203.836 127.248 204.689 127.936 205.51 128.632L205.439 128.456C205.142 130.336 204.821 132.216 204.556 134.104C204.29 135.992 204.008 137.88 203.774 139.768C204.165 137.896 204.532 136.029 204.876 134.168C205.244 132.288 205.557 130.408 205.885 128.528V128.424L205.799 128.352C205.017 127.648 204.172 126.936 203.351 126.248V126.544L205.244 124.696L205.361 124.584L205.259 124.456C204.477 123.456 203.609 122.48 202.78 121.496C201.952 120.512 201.177 119.52 200.317 118.552Z" fill="#DBDBDB"/>
<path d="M191.864 117.336C192.059 118.072 194.21 123.056 197.478 123.416C199.543 123.64 199.824 116.344 199.824 116.344L199.903 115.896L200.974 109.6L193.67 105.192L192.614 104.616C192.614 104.616 192.419 106.352 192.192 108.512C192.192 108.608 192.192 108.712 192.192 108.816L192.145 109.168C192.106 109.488 192.075 109.824 192.044 110.152C192.012 110.48 191.997 110.64 191.973 110.904C191.95 111.168 191.934 111.432 191.911 111.704C191.771 113.578 191.755 115.46 191.864 117.336Z" fill="#DD6A57"/>
<path d="M192.223 108.544C192.902 110.263 193.937 111.811 195.257 113.08C196.578 114.349 198.152 115.31 199.871 115.896L200.974 109.6L193.67 105.192L192.614 104.616C192.614 104.616 192.45 106.4 192.223 108.544Z" fill="#263238"/>
<path d="M209.529 102.16C208.34 113.272 201.709 113.792 199.363 113.528C197.244 113.288 190.034 112.184 190.096 101.008C190.159 89.832 195.57 86.888 200.481 87.176C205.392 87.464 210.726 91.048 209.529 102.16Z" fill="#DD6A57"/>
<path d="M207.543 99.472C207.303 99.3919 207.068 99.2984 206.839 99.192C206.578 99.1298 206.344 98.9807 206.174 98.768C206.133 98.6907 206.118 98.6012 206.132 98.5141C206.146 98.427 206.188 98.3473 206.252 98.288C206.394 98.1883 206.56 98.129 206.732 98.1164C206.903 98.1037 207.075 98.1381 207.23 98.216C207.559 98.3319 207.836 98.5647 208.012 98.872C208.047 98.9443 208.061 99.0253 208.053 99.1055C208.044 99.1857 208.013 99.2618 207.964 99.3248C207.915 99.3878 207.849 99.4351 207.774 99.4612C207.7 99.4873 207.619 99.491 207.543 99.472Z" fill="#263238"/>
<path d="M200.145 98.224C200.405 98.2413 200.667 98.2413 200.927 98.224C201.2 98.2527 201.475 98.188 201.709 98.04C201.77 97.9785 201.81 97.8991 201.824 97.8129C201.838 97.7267 201.825 97.6383 201.787 97.56C201.684 97.4198 201.547 97.3104 201.389 97.2429C201.231 97.1754 201.058 97.1523 200.888 97.176C200.535 97.1636 200.191 97.2895 199.926 97.528C199.878 97.5831 199.845 97.6502 199.83 97.7224C199.815 97.7947 199.819 97.8698 199.841 97.9401C199.863 98.0104 199.903 98.0736 199.956 98.1234C200.009 98.1732 200.075 98.2079 200.145 98.224Z" fill="#263238"/>
<path d="M201.232 101.272C201.232 101.272 201.169 101.272 201.162 101.328C201.083 102.128 200.865 102.928 200.161 103.088V103.136C200.974 103.136 201.271 102 201.232 101.272Z" fill="#263238"/>
<path d="M200.685 100.392C199.512 100.12 199.121 102.544 200.169 102.792C201.216 103.04 201.662 100.608 200.685 100.392Z" fill="#263238"/>
<path d="M200.192 100.432C199.957 100.528 199.715 100.728 199.457 100.712C199.199 100.696 198.996 100.392 198.847 100.112C198.768 100.326 198.773 100.562 198.861 100.772C198.948 100.982 199.111 101.15 199.316 101.24C199.746 101.384 200.098 101.032 200.333 100.592C200.341 100.528 200.286 100.392 200.192 100.432Z" fill="#263238"/>
<path d="M205.666 101.976C205.666 101.976 205.713 102.024 205.705 102.056C205.541 102.8 205.478 103.656 206.096 104.056C206.096 104.056 206.096 104.104 206.096 104.096C205.306 103.824 205.4 102.656 205.666 101.976Z" fill="#263238"/>
<path d="M206.448 101.328C207.637 101.464 207.277 103.896 206.174 103.768C205.072 103.64 205.471 101.208 206.448 101.328Z" fill="#263238"/>
<path d="M206.941 101.6C207.113 101.76 207.261 102.024 207.48 102.072C207.699 102.12 207.973 101.896 208.176 101.672C208.121 102.136 207.895 102.592 207.449 102.616C207.003 102.64 206.808 102.192 206.769 101.712C206.792 101.6 206.87 101.496 206.941 101.6Z" fill="#263238"/>
<path d="M204.149 105.152C204.136 105.711 204.094 106.269 204.024 106.824C204.024 106.872 203.891 106.872 203.711 106.824C203.253 106.828 202.803 106.704 202.41 106.464C202.017 106.224 201.696 105.878 201.482 105.464C201.482 105.408 201.529 105.368 201.568 105.408C202.152 105.982 202.9 106.35 203.703 106.456C203.766 106.312 203.703 104.488 203.781 104.496C204.177 104.601 204.556 104.763 204.907 104.976C205.048 102.576 204.814 100.176 204.994 97.824C204.994 97.736 205.126 97.736 205.134 97.824C205.459 100.381 205.535 102.964 205.361 105.536C205.338 105.856 204.344 105.272 204.149 105.152Z" fill="#263238"/>
<path d="M203.414 106.512C203.089 106.846 202.685 107.089 202.241 107.216C201.997 107.279 201.74 107.263 201.506 107.168C200.997 106.96 201.052 106.464 201.201 106.056C201.278 105.837 201.383 105.63 201.514 105.44C202.02 105.994 202.686 106.369 203.414 106.512Z" fill="#263238"/>
<path d="M202.241 107.2C201.997 107.263 201.74 107.247 201.506 107.152C200.997 106.944 201.052 106.448 201.201 106.04C201.477 106.085 201.73 106.223 201.919 106.434C202.108 106.645 202.221 106.915 202.241 107.2Z" fill="#FF9CBD"/>
<path d="M209.678 98.176C208.34 98.328 204.438 94.544 203.461 90.072C202.671 92.3851 201.113 94.3415 199.058 95.6C197.208 96.8516 195.018 97.4732 192.802 97.376C192.802 97.376 190.941 102.128 190.128 102.064C189.314 102 187.68 84.08 201.756 86.84C201.756 86.84 205.94 87.28 208.012 90.264C210.084 93.248 209.678 98.176 209.678 98.176Z" fill="#263238"/>
<path d="M198.839 104.992C198.206 104.798 197.638 104.427 197.2 103.92C196.763 103.413 196.473 102.79 196.364 102.123C196.255 101.456 196.331 100.771 196.584 100.146C196.836 99.5209 197.255 98.9808 197.793 98.5871C198.33 98.1933 198.965 97.9617 199.625 97.9185C200.285 97.8753 200.943 98.0223 201.525 98.3428C202.107 98.6633 202.59 99.1444 202.918 99.7315C203.247 100.319 203.408 100.988 203.383 101.664C203.344 102.623 202.936 103.528 202.247 104.18C201.558 104.832 200.645 105.179 199.707 105.144C199.413 105.131 199.121 105.08 198.839 104.992ZM200.716 98.52C200.462 98.441 200.199 98.3979 199.934 98.392C199.156 98.3688 198.398 98.6495 197.814 99.1771C197.231 99.7046 196.866 100.44 196.793 101.233C196.72 102.026 196.945 102.818 197.421 103.447C197.898 104.077 198.592 104.497 199.36 104.623C200.129 104.749 200.916 104.571 201.561 104.125C202.206 103.679 202.661 102.998 202.834 102.221C203.006 101.445 202.884 100.63 202.49 99.9424C202.097 99.2549 201.463 98.7464 200.716 98.52Z" fill="#37474F"/>
<path d="M206.847 106.4C205.549 106.008 204.767 104.296 205.079 102.4C205.21 101.496 205.615 100.656 206.237 100C206.485 99.706 206.804 99.4826 207.162 99.3517C207.52 99.2208 207.905 99.1866 208.279 99.2526C208.654 99.3186 209.005 99.4825 209.299 99.7284C209.594 99.9743 209.821 100.294 209.959 100.656C210.326 101.476 210.436 102.393 210.272 103.28C209.936 105.248 208.505 106.64 207.074 106.384C206.999 106.398 206.923 106.403 206.847 106.4ZM208.372 99.848C208.316 99.8273 208.258 99.8112 208.2 99.8C207.9 99.7612 207.596 99.797 207.313 99.9042C207.03 100.011 206.776 100.187 206.573 100.416C206.023 100.986 205.664 101.72 205.549 102.512C205.259 104.216 205.971 105.776 207.113 105.984C208.254 106.192 209.459 104.976 209.764 103.272C209.915 102.487 209.822 101.673 209.498 100.944C209.398 100.686 209.246 100.452 209.052 100.258C208.858 100.063 208.626 99.9129 208.372 99.816V99.848Z" fill="#37474F"/>
<path d="M203.195 102.056L202.96 101.64C203.562 101.28 204.892 100.888 205.58 101.968L205.189 102.232C204.563 101.264 203.25 102.024 203.195 102.056Z" fill="#37474F"/>
<path d="M187.508 100.224L187.133 99.928C187.266 99.752 188.462 98.176 189.533 98.184C190.605 98.192 196.681 99.904 196.939 99.976L196.814 100.448C195.054 99.952 190.3 98.68 189.525 98.672C188.751 98.664 187.829 99.784 187.508 100.224Z" fill="#37474F"/>
<path d="M191.942 100.984C191.942 100.984 190.268 97.088 188.587 97.632C186.906 98.176 187.696 103.488 189.369 104.536C189.572 104.684 189.801 104.789 190.045 104.844C190.288 104.899 190.539 104.903 190.784 104.856C191.029 104.809 191.262 104.712 191.469 104.57C191.676 104.428 191.853 104.245 191.989 104.032L191.942 100.984Z" fill="#DD6A57"/>
<path d="M198.526 132.8C198.526 132.8 195.883 129.24 198.401 127.6C200.919 125.96 202.968 129.904 202.968 129.904L198.526 132.8Z" fill="#455A64"/>
<path d="M219.414 156.216L219.773 160.576L219.906 162.016L218.678 161.304L214.964 159.12L198.44 132.624L202.882 129.72L219.414 156.224V156.216Z" fill="#455A64"/>
<path d="M219.781 160.576L219.906 162.016L218.671 161.304L219.781 160.576Z" fill="#37474F"/>
<path d="M203.155 129.33L197.967 132.716L198.623 133.768L203.811 130.382L203.155 129.33Z" fill="#263238"/>
<path d="M203.882 130.506L198.694 133.893L199.35 134.945L204.538 131.558L203.882 130.506Z" fill="#263238"/>
<path d="M199.355 134.936L201.029 133.84L206.088 144.032L205.447 144.4L199.355 134.936Z" fill="#263238"/>
<path d="M181.846 124.8C168.912 138.816 154.156 162.592 160.154 167.864C165.628 172.664 186.061 168.664 198.956 163.808C201.412 162.888 191.989 140.648 189.479 141.904C186.831 143.264 184.102 144.451 181.307 145.456C180.603 145.64 184.231 137.144 188.681 126.848C193.639 115.36 189.244 116.8 181.846 124.8Z" fill="#DD6A57"/>
<path d="M220.594 140.928C220.594 143.488 214.393 142.856 214.393 142.856C215.282 143.483 215.929 144.409 216.223 145.472C216.645 147.368 213.924 148.888 213.924 148.888C214.714 149.735 215.237 150.805 215.425 151.96C215.652 153.816 213.079 155.744 213.079 155.744C213.385 156.932 213.263 158.193 212.735 159.296C211.21 162.184 206.268 162.136 203.211 162.72C199.784 163.458 196.421 164.477 193.154 165.768L187.993 142.64C187.993 142.64 201.381 134.896 205.072 135.152C208.176 135.376 220.657 137.016 220.594 140.928Z" fill="#DD6A57"/>
<path d="M214.346 142.784C211.048 141.866 207.652 141.366 204.235 141.296C204.157 141.296 204.157 141.408 204.235 141.416C207.59 141.568 210.984 142.648 214.323 142.944C214.343 142.947 214.365 142.942 214.381 142.929C214.398 142.916 214.41 142.897 214.413 142.876C214.416 142.855 214.411 142.833 214.398 142.816C214.386 142.799 214.367 142.787 214.346 142.784Z" fill="#263238"/>
<path d="M213.838 148.624C213.067 148.456 212.278 148.394 211.492 148.44C210.668 148.44 209.847 148.44 209.029 148.44C207.379 148.44 205.729 148.56 204.086 148.696C204.016 148.696 204.008 148.816 204.086 148.816C205.729 148.776 207.371 148.76 209.013 148.816L211.484 148.88C212.264 148.97 213.051 148.97 213.83 148.88C213.863 148.881 213.895 148.869 213.92 148.845C213.944 148.822 213.958 148.79 213.959 148.756C213.96 148.722 213.948 148.689 213.925 148.664C213.903 148.64 213.871 148.625 213.838 148.624Z" fill="#263238"/>
<path d="M213.048 155.744C212.36 155.608 211.654 155.592 210.96 155.696L208.708 155.792C207.207 155.84 205.705 155.896 204.204 155.896C204.125 155.896 204.125 156.016 204.204 156.016C205.729 156.016 207.253 156.016 208.786 156.016H211.031C211.714 156.074 212.403 156.006 213.064 155.816C213.068 155.81 213.071 155.804 213.072 155.797C213.074 155.79 213.074 155.783 213.072 155.776C213.071 155.769 213.068 155.763 213.064 155.757C213.06 155.752 213.054 155.747 213.048 155.744Z" fill="#263238"/>
<path d="M188.204 118.648C178.937 124.08 154.515 157.048 158.488 166.464C162.46 175.88 192.114 166.632 192.114 166.632L190.315 141.344C190.315 141.344 182.495 145.528 182.229 145.12C181.964 144.712 186.835 133.352 188.814 128.728C190.792 124.104 193.154 115.752 188.204 118.648Z" fill="#EBEBEB"/>
<path d="M188.462 165.088C188.024 161.736 186.726 147.976 186.64 144.984C186.64 144.776 186.757 144.72 186.796 144.936C188.36 154.936 188.36 161.736 188.587 165.064C188.611 165.144 188.462 165.168 188.462 165.088Z" fill="#263238"/>
<path d="M190.167 141.368C189.301 141.66 188.459 142.021 187.649 142.448C186.914 142.792 186.179 143.144 185.451 143.504C183.887 144.304 182.323 145.104 180.759 145.904C179.195 146.704 177.631 147.576 176.067 148.44C174.503 149.304 173.041 150.264 171.5 151.136C171.43 151.176 171.5 151.28 171.563 151.24C173.127 150.44 174.746 149.64 176.333 148.84L180.986 146.48C182.55 145.68 184.114 144.88 185.639 144.128L187.907 142.96C188.737 142.58 189.54 142.139 190.308 141.64C190.324 141.614 190.334 141.583 190.335 141.552C190.337 141.521 190.33 141.489 190.315 141.462C190.301 141.434 190.28 141.411 190.254 141.394C190.227 141.378 190.197 141.369 190.167 141.368Z" fill="#263238"/>
<path d="M187.805 134.04C187.312 134.648 186.828 135.248 186.366 135.88C186.28 135.992 186.202 136.112 186.124 136.232L186.515 135.256C187.023 134.129 187.467 132.972 187.844 131.792C187.844 131.744 187.782 131.712 187.758 131.792C187.143 132.925 186.59 134.092 186.1 135.288C185.584 136.432 185.06 137.576 184.536 138.728C184.012 139.88 183.528 141.032 183.051 142.2C182.543 143.33 182.114 144.496 181.768 145.688C181.768 145.76 181.846 145.784 181.885 145.728C182.53 144.616 183.097 143.458 183.582 142.264C184.091 141.112 184.575 139.952 185.068 138.792L185.67 137.328L185.913 137C186.147 136.704 186.366 136.392 186.577 136.08C187.007 135.432 187.414 134.768 187.821 134.096C187.852 134.048 187.821 134.024 187.805 134.04Z" fill="#263238"/>
<path d="M192.216 166.08C192.216 165.912 192.122 165.88 192.083 166.08C192.044 166.28 192.083 166.36 192.028 166.456C191.019 166.696 187.336 167.72 186.444 167.96C184.552 168.467 182.649 168.904 180.736 169.272C178.812 169.64 176.888 169.944 174.941 170.192C172.994 170.44 171.031 170.696 169.115 170.76C169.099 170.76 169.083 170.767 169.071 170.779C169.059 170.791 169.053 170.807 169.053 170.824C169.053 170.841 169.059 170.857 169.071 170.869C169.083 170.881 169.099 170.888 169.115 170.888C171.102 170.848 173.072 170.848 175.051 170.688C177.029 170.528 178.961 170.256 180.83 169.888C182.699 169.52 184.74 169.088 186.624 168.56C187.586 168.296 188.532 168.008 189.479 167.704C190.397 167.459 191.29 167.124 192.145 166.704C192.175 166.684 192.2 166.657 192.216 166.625C192.233 166.593 192.241 166.556 192.239 166.52L192.216 166.08Z" fill="#263238"/>
<path d="M196.282 138.256L195.625 138.576L190.331 131.24L190.214 131.08L190.292 130.904L192.239 126.608L186.765 126.336H186.491L186.593 126.088C187.719 123.344 188.814 120.584 189.956 117.848C189.002 120.568 188.008 123.264 187.039 125.968L192.677 126.112H193.068L192.904 126.48L190.988 131L196.282 138.256Z" fill="#DBDBDB"/>
<path d="M186.718 125.944H186.976L186.882 126.2L186.718 125.944Z" fill="#DBDBDB"/>
<path d="M190.816 130.84L190.925 130.992L190.855 131.176L190.816 130.84Z" fill="#DBDBDB"/>
<path d="M192.364 126.248L192.599 126.632L192.2 126.608L192.364 126.248Z" fill="#DBDBDB"/>
<path d="M232.973 169.448L207.066 167.816L221.212 134.576L247.12 136.208L232.973 169.448Z" fill="white"/>
<path d="M234.749 169.56L208.841 167.928L222.987 134.688L248.895 136.32L234.749 169.56Z" fill="#455A64"/>
<path d="M225.74 134.864C225.522 135.443 225.093 135.913 224.544 136.176C224.285 136.296 224.239 135.96 224.497 135.848C224.837 135.678 225.113 135.396 225.279 135.048C225.279 134.984 225.333 134.92 225.357 134.864C225.435 134.658 225.462 134.435 225.435 134.216C225.416 134.124 225.37 134.04 225.302 133.976H225.255C225.194 133.96 225.129 133.96 225.067 133.976C224.952 134.006 224.847 134.066 224.762 134.152C224.607 134.311 224.47 134.488 224.356 134.68C224.352 134.701 224.352 134.723 224.356 134.744C224.356 134.744 224.356 134.744 224.356 134.792H223.988C224.086 134.564 224.215 134.351 224.371 134.16C224.494 133.993 224.651 133.854 224.83 133.753C225.009 133.652 225.208 133.592 225.412 133.576C225.557 133.584 225.694 133.648 225.795 133.754C225.897 133.861 225.955 134.003 225.959 134.152C225.942 134.404 225.867 134.648 225.74 134.864Z" fill="#389F18"/>
<path d="M227.765 134.992C227.552 135.574 227.121 136.046 226.569 136.304C226.319 136.424 226.272 136.088 226.522 135.976C226.861 135.803 227.135 135.522 227.304 135.176C227.304 135.112 227.359 135.048 227.374 134.992C227.453 134.786 227.48 134.563 227.453 134.344C227.437 134.251 227.39 134.166 227.32 134.104H227.273C227.214 134.088 227.152 134.088 227.093 134.104C226.975 134.134 226.868 134.195 226.78 134.28C226.671 134.378 226.577 134.491 226.498 134.616C226.452 134.672 226.42 134.744 226.373 134.808C226.362 134.83 226.349 134.852 226.334 134.872C226.334 134.872 226.334 134.872 226.334 134.92H225.967C226.065 134.69 226.197 134.477 226.358 134.288C226.478 134.12 226.633 133.981 226.811 133.88C226.989 133.779 227.187 133.719 227.39 133.704C227.536 133.71 227.674 133.773 227.776 133.88C227.878 133.988 227.935 134.131 227.937 134.28C227.937 134.528 227.878 134.772 227.765 134.992Z" fill="#389F18"/>
<path d="M229.791 135.12C229.687 135.408 229.528 135.672 229.324 135.897C229.12 136.122 228.875 136.304 228.602 136.432C228.344 136.552 228.297 136.216 228.547 136.104C228.886 135.931 229.16 135.65 229.329 135.304C229.329 135.24 229.384 135.176 229.4 135.12C229.482 134.915 229.509 134.691 229.478 134.472C229.462 134.379 229.415 134.294 229.345 134.232H229.29C229.231 134.216 229.169 134.216 229.11 134.232C228.994 134.263 228.886 134.324 228.798 134.408C228.694 134.508 228.602 134.621 228.524 134.744C228.478 134.805 228.436 134.869 228.399 134.936C228.397 134.957 228.397 134.979 228.399 135C228.399 135 228.399 135 228.399 135.048H228.031C228.132 134.82 228.264 134.607 228.422 134.416C228.543 134.249 228.698 134.11 228.876 134.009C229.054 133.909 229.252 133.848 229.454 133.832C229.6 133.838 229.738 133.901 229.84 134.008C229.942 134.116 230 134.259 230.002 134.408C229.99 134.659 229.917 134.904 229.791 135.12Z" fill="#389F18"/>
<path d="M231.824 135.248C231.606 135.827 231.177 136.297 230.627 136.56C230.369 136.68 230.322 136.344 230.58 136.232C230.921 136.062 231.196 135.781 231.362 135.432C231.362 135.368 231.417 135.304 231.441 135.248C231.519 135.042 231.546 134.819 231.519 134.6C231.5 134.508 231.454 134.424 231.386 134.36H231.339C231.277 134.344 231.213 134.344 231.151 134.36C231.036 134.39 230.931 134.45 230.846 134.536C230.691 134.695 230.554 134.872 230.44 135.064V135.104C230.423 135.123 230.41 135.144 230.401 135.168C230.401 135.168 230.401 135.168 230.401 135.216H230.033C230.131 134.988 230.26 134.775 230.416 134.584C230.539 134.417 230.695 134.278 230.875 134.177C231.054 134.077 231.252 134.016 231.456 134C231.602 134.008 231.739 134.072 231.84 134.178C231.942 134.285 232 134.427 232.004 134.576C231.993 134.811 231.931 135.04 231.824 135.248Z" fill="#389F18"/>
<path d="M233.818 135.376C233.604 135.958 233.174 136.43 232.622 136.688C232.371 136.808 232.324 136.472 232.575 136.36C232.913 136.187 233.188 135.906 233.357 135.56C233.357 135.496 233.411 135.432 233.427 135.376C233.509 135.171 233.536 134.947 233.505 134.728C233.489 134.635 233.442 134.55 233.372 134.488H233.325C233.266 134.472 233.204 134.472 233.145 134.488C233.028 134.518 232.92 134.579 232.833 134.664C232.724 134.762 232.629 134.875 232.551 135C232.504 135.056 232.473 135.128 232.426 135.192V135.232C232.428 135.253 232.428 135.275 232.426 135.296C232.426 135.296 232.426 135.296 232.426 135.344H232.059C232.157 135.114 232.288 134.901 232.449 134.712C232.57 134.544 232.725 134.405 232.903 134.304C233.081 134.203 233.279 134.143 233.482 134.128C233.628 134.134 233.766 134.197 233.868 134.304C233.969 134.412 234.027 134.555 234.029 134.704C234.011 134.942 233.938 135.172 233.818 135.376Z" fill="#389F18"/>
<path d="M235.875 135.504C235.771 135.792 235.612 136.056 235.408 136.281C235.204 136.506 234.959 136.688 234.686 136.816C234.428 136.936 234.381 136.6 234.631 136.488C234.97 136.315 235.244 136.034 235.413 135.688C235.413 135.624 235.468 135.56 235.484 135.504C235.566 135.299 235.593 135.075 235.562 134.856C235.546 134.763 235.499 134.678 235.429 134.616H235.374C235.315 134.6 235.253 134.6 235.194 134.616C235.078 134.647 234.97 134.708 234.882 134.792C234.778 134.892 234.686 135.005 234.608 135.128C234.56 135.188 234.518 135.252 234.483 135.32V135.36C234.481 135.381 234.481 135.403 234.483 135.424C234.483 135.424 234.483 135.424 234.483 135.472H234.115C234.216 135.244 234.348 135.031 234.506 134.84C234.627 134.673 234.782 134.534 234.96 134.433C235.138 134.333 235.336 134.272 235.538 134.256C235.684 134.262 235.822 134.325 235.924 134.432C236.026 134.54 236.084 134.683 236.086 134.832C236.067 135.07 235.995 135.3 235.875 135.504Z" fill="#389F18"/>
<path d="M237.908 135.632C237.69 136.211 237.261 136.681 236.711 136.944C236.453 137.064 236.406 136.728 236.664 136.616C237.005 136.446 237.28 136.165 237.446 135.816C237.446 135.752 237.501 135.688 237.525 135.632C237.603 135.426 237.63 135.203 237.603 134.984C237.584 134.892 237.538 134.808 237.47 134.744H237.423C237.362 134.724 237.296 134.724 237.235 134.744C237.12 134.774 237.015 134.834 236.93 134.92C236.822 135.018 236.727 135.131 236.649 135.256C236.601 135.316 236.559 135.38 236.524 135.448V135.488C236.52 135.509 236.52 135.531 236.524 135.552C236.524 135.552 236.524 135.552 236.524 135.6H236.156C236.254 135.372 236.383 135.159 236.539 134.968C236.662 134.801 236.818 134.662 236.998 134.561C237.177 134.461 237.375 134.4 237.579 134.384C237.725 134.392 237.862 134.456 237.963 134.562C238.065 134.669 238.123 134.811 238.127 134.96C238.104 135.198 238.029 135.428 237.908 135.632Z" fill="#389F18"/>
<path d="M239.933 135.76C239.72 136.342 239.289 136.814 238.737 137.072C238.487 137.192 238.44 136.856 238.69 136.744C239.028 136.571 239.303 136.29 239.472 135.944C239.472 135.88 239.527 135.816 239.542 135.76C239.624 135.555 239.651 135.331 239.62 135.112C239.605 135.019 239.558 134.934 239.488 134.872H239.441C239.382 134.852 239.319 134.852 239.261 134.872C239.143 134.902 239.035 134.963 238.948 135.048C238.839 135.146 238.745 135.259 238.666 135.384C238.621 135.445 238.579 135.51 238.541 135.576V135.616C238.53 135.638 238.517 135.66 238.502 135.68C238.502 135.68 238.502 135.68 238.502 135.728H238.135C238.236 135.5 238.367 135.287 238.526 135.096C238.646 134.928 238.801 134.789 238.979 134.688C239.157 134.587 239.355 134.527 239.558 134.512C239.704 134.518 239.842 134.581 239.944 134.688C240.046 134.796 240.103 134.939 240.105 135.088C240.099 135.323 240.04 135.552 239.933 135.76Z" fill="#389F18"/>
<path d="M241.959 135.888C241.854 136.176 241.696 136.44 241.492 136.665C241.288 136.89 241.043 137.072 240.77 137.2C240.512 137.32 240.465 136.984 240.715 136.872C241.054 136.699 241.328 136.418 241.497 136.072C241.497 136.008 241.552 135.944 241.568 135.888C241.65 135.683 241.677 135.459 241.646 135.24C241.63 135.147 241.583 135.062 241.513 135H241.458C241.4 134.98 241.337 134.98 241.278 135C241.161 135.031 241.054 135.092 240.965 135.176C240.862 135.276 240.77 135.389 240.692 135.512C240.644 135.571 240.602 135.636 240.567 135.704V135.768C240.567 135.768 240.567 135.768 240.567 135.816H240.199C240.3 135.588 240.432 135.375 240.59 135.184C240.711 135.017 240.866 134.878 241.044 134.777C241.222 134.677 241.419 134.616 241.622 134.6C241.768 134.606 241.906 134.669 242.008 134.776C242.11 134.884 242.168 135.027 242.17 135.176C242.157 135.427 242.085 135.672 241.959 135.888Z" fill="#389F18"/>
<path d="M243.984 136C243.766 136.579 243.337 137.049 242.788 137.312C242.53 137.432 242.483 137.096 242.741 136.984C243.081 136.814 243.357 136.533 243.523 136.184C243.523 136.12 243.577 136.056 243.601 136C243.679 135.794 243.706 135.571 243.679 135.352C243.66 135.26 243.614 135.176 243.546 135.112H243.499C243.438 135.092 243.373 135.092 243.312 135.112C243.196 135.142 243.091 135.202 243.007 135.288C242.898 135.386 242.803 135.499 242.725 135.624C242.677 135.684 242.635 135.748 242.6 135.816C242.583 135.835 242.57 135.856 242.561 135.88C242.561 135.88 242.561 135.88 242.561 135.928H242.193C242.291 135.7 242.42 135.487 242.576 135.296C242.699 135.129 242.856 134.99 243.035 134.889C243.214 134.789 243.413 134.728 243.616 134.712C243.762 134.72 243.899 134.784 244 134.89C244.102 134.997 244.16 135.139 244.164 135.288C244.159 135.536 244.097 135.78 243.984 136Z" fill="#389F18"/>
<path d="M246.017 136.144C245.803 136.726 245.373 137.198 244.821 137.456C244.57 137.576 244.524 137.24 244.774 137.128C245.112 136.955 245.387 136.674 245.556 136.328C245.556 136.264 245.611 136.2 245.626 136.144C245.708 135.939 245.735 135.715 245.704 135.496C245.689 135.403 245.642 135.318 245.571 135.256H245.525C245.466 135.236 245.403 135.236 245.345 135.256C245.227 135.286 245.119 135.346 245.032 135.432C244.923 135.53 244.829 135.643 244.75 135.768C244.705 135.829 244.663 135.894 244.625 135.96C244.627 135.981 244.627 136.003 244.625 136.024C244.625 136.024 244.625 136.024 244.625 136.072H244.258C244.359 135.844 244.49 135.631 244.649 135.44C244.769 135.272 244.924 135.133 245.102 135.032C245.28 134.931 245.478 134.871 245.681 134.856C245.827 134.862 245.965 134.925 246.067 135.032C246.169 135.14 246.226 135.283 246.228 135.432C246.216 135.683 246.144 135.928 246.017 136.144Z" fill="#389F18"/>
<path d="M248.043 136.272C247.938 136.56 247.78 136.824 247.576 137.049C247.372 137.274 247.127 137.456 246.854 137.584C246.596 137.704 246.549 137.368 246.799 137.256C247.138 137.083 247.412 136.802 247.581 136.456C247.581 136.392 247.636 136.328 247.652 136.272C247.734 136.067 247.761 135.843 247.73 135.624C247.714 135.531 247.667 135.446 247.597 135.384H247.542C247.484 135.364 247.421 135.364 247.362 135.384C247.245 135.415 247.138 135.476 247.049 135.56C246.945 135.66 246.854 135.773 246.776 135.896C246.728 135.956 246.686 136.02 246.651 136.088V136.128C246.649 136.149 246.649 136.171 246.651 136.192C246.651 136.192 246.651 136.192 246.651 136.24H246.283C246.384 136.012 246.516 135.799 246.674 135.608C246.795 135.441 246.95 135.302 247.128 135.201C247.306 135.101 247.503 135.04 247.706 135.024C247.852 135.03 247.99 135.093 248.092 135.2C248.194 135.308 248.252 135.451 248.254 135.6C248.235 135.838 248.163 136.068 248.043 136.272Z" fill="#389F18"/>
<path d="M246.612 143.92C247.589 146.944 250.522 150.92 250.522 153.296C250.547 153.892 250.38 154.479 250.047 154.968C249.713 155.457 249.231 155.819 248.676 156C248.676 156 250.819 157.448 250.467 159.6C250.279 160.712 248.395 161.384 248.395 161.384C248.862 161.74 249.225 162.221 249.443 162.775C249.661 163.328 249.725 163.932 249.63 164.52C249.286 166.032 247.448 166.48 247.448 166.48C247.448 166.48 248.504 168.432 247.675 169.856C245.986 172.736 233.091 171.112 231.683 166C231.026 163.6 234.154 164.192 234.154 164.192C234.154 164.192 229.845 162.256 230.103 159.528C230.362 156.8 234.389 157.792 234.389 157.792C234.389 157.792 230.229 155.88 230.776 153.08C231.347 150.16 235.202 151.864 235.202 151.864C235.202 151.864 232.575 149.512 233.474 147.464C234.96 144.088 239.863 149.184 242.78 148.856L244.915 144.272L246.612 143.92Z" fill="#DD6A57"/>
<path d="M248.676 148.4C247.988 145.448 251.804 142.392 251.569 139.472C251.217 135.528 246.533 138.76 244.915 144.232L244.398 148.696L248.676 148.4Z" fill="#DD6A57"/>
<path d="M248.465 161.384C248.52 161.384 248.52 161.472 248.465 161.48C243.452 162.049 238.407 160.763 234.24 157.856C234.092 157.744 234.068 157.504 234.24 157.616C237.157 159.456 244.273 161.224 248.465 161.384Z" fill="#263238"/>
<path d="M234.983 151.496C239.089 154.304 243.648 155.496 248.512 155.992C248.574 155.992 248.559 156.088 248.512 156.096C246.064 156.512 243.038 155.848 240.692 155.128C238.507 154.503 236.52 153.303 234.928 151.648C234.827 151.584 234.897 151.44 234.983 151.496Z" fill="#263238"/>
<path d="M345.386 200H45.6219V221.96H345.386V200Z" fill="#37474F"/>
<path d="M339.474 221.96H51.5182V349.416H339.474V221.96Z" fill="#37474F"/>
<path d="M339.474 221.96H51.5182V235.424H339.474V221.96Z" fill="#263238"/>
<path d="M128.287 287.64C128.289 287.488 128.349 287.343 128.454 287.235C128.559 287.127 128.701 287.066 128.85 287.064H133.495C134.74 287.064 135.933 287.57 136.813 288.47C137.693 289.37 138.187 290.591 138.187 291.864C138.187 293.137 137.693 294.358 136.813 295.258C135.933 296.158 134.74 296.664 133.495 296.664L129.437 296.712V303.312C129.42 303.456 129.353 303.589 129.247 303.686C129.141 303.782 129.004 303.835 128.862 303.835C128.72 303.835 128.583 303.782 128.477 303.686C128.371 303.589 128.304 303.456 128.287 303.312V287.64ZM133.495 295.512C134.409 295.468 135.271 295.066 135.903 294.389C136.534 293.712 136.887 292.812 136.887 291.876C136.887 290.94 136.534 290.04 135.903 289.363C135.271 288.686 134.409 288.284 133.495 288.24H129.437V295.512H133.495Z" fill="white"/>
<path d="M153.905 296.04H145.452V303.288C145.436 303.432 145.368 303.565 145.262 303.662C145.156 303.758 145.019 303.811 144.877 303.811C144.735 303.811 144.599 303.758 144.493 303.662C144.387 303.565 144.319 303.432 144.302 303.288V287.64C144.319 287.496 144.387 287.363 144.493 287.266C144.599 287.17 144.735 287.117 144.877 287.117C145.019 287.117 145.156 287.17 145.262 287.266C145.368 287.363 145.436 287.496 145.452 287.64V294.888H153.898V287.64C153.914 287.496 153.982 287.363 154.088 287.266C154.194 287.17 154.331 287.117 154.472 287.117C154.614 287.117 154.751 287.17 154.857 287.266C154.963 287.363 155.031 287.496 155.047 287.64V303.288C155.031 303.432 154.963 303.565 154.857 303.662C154.751 303.758 154.614 303.811 154.472 303.811C154.331 303.811 154.194 303.758 154.088 303.662C153.982 303.565 153.914 303.432 153.898 303.288L153.905 296.04Z" fill="white"/>
<path d="M170.75 299.52H163.266L161.811 303.52C161.77 303.632 161.696 303.729 161.6 303.798C161.504 303.867 161.389 303.904 161.272 303.904H161.061C160.914 303.842 160.797 303.723 160.735 303.573C160.674 303.423 160.673 303.255 160.732 303.104L166.433 287.528C166.484 287.42 166.564 287.329 166.664 287.265C166.764 287.202 166.879 287.168 166.996 287.168C167.115 287.162 167.232 287.193 167.333 287.257C167.434 287.322 167.513 287.416 167.559 287.528L173.26 303.104C173.292 303.177 173.31 303.256 173.312 303.336C173.314 303.416 173.301 303.495 173.272 303.57C173.244 303.644 173.201 303.712 173.147 303.77C173.092 303.827 173.027 303.873 172.955 303.904C172.861 303.904 172.814 303.904 172.744 303.904C172.627 303.9 172.514 303.862 172.418 303.794C172.322 303.726 172.248 303.631 172.204 303.52L170.75 299.52ZM163.712 298.344H170.351L167.043 289.32L163.712 298.344Z" fill="white"/>
<path d="M187.43 300.072C187.431 299.568 187.31 299.071 187.076 298.627C186.843 298.182 186.505 297.805 186.093 297.528C185.52 297.122 184.874 296.836 184.192 296.688C184.122 296.688 184.098 296.64 184.075 296.64H180.087V303.288C180.07 303.432 180.003 303.565 179.897 303.662C179.791 303.758 179.654 303.811 179.512 303.811C179.37 303.811 179.233 303.758 179.127 303.662C179.021 303.565 178.954 303.432 178.937 303.288V287.64C178.94 287.496 178.994 287.358 179.089 287.252C179.184 287.146 179.314 287.079 179.453 287.064H184.145C185.21 287.07 186.241 287.446 187.069 288.13C187.897 288.815 188.473 289.767 188.702 290.83C188.931 291.894 188.8 293.006 188.33 293.983C187.86 294.96 187.079 295.745 186.116 296.208C186.192 296.253 186.27 296.293 186.351 296.328C187.015 296.689 187.572 297.228 187.96 297.888C188.348 298.547 188.554 299.302 188.556 300.072C188.529 300.727 188.6 301.383 188.767 302.016C188.807 302.171 188.888 302.313 189.002 302.424C189.133 302.41 189.266 302.44 189.38 302.509C189.494 302.578 189.584 302.683 189.635 302.808C189.682 302.965 189.669 303.135 189.6 303.283C189.53 303.431 189.409 303.547 189.26 303.608C189.166 303.614 189.072 303.614 188.978 303.608H188.931C188.702 303.582 188.483 303.494 188.298 303.354C188.112 303.213 187.967 303.025 187.875 302.808C187.518 301.945 187.365 301.007 187.43 300.072ZM184.145 288.24H180.087V295.488H184.239C185.179 295.475 186.075 295.081 186.73 294.393C187.386 293.704 187.747 292.777 187.735 291.816C187.722 290.855 187.337 289.938 186.664 289.267C185.991 288.597 185.085 288.227 184.145 288.24Z" fill="white"/>
<path d="M208.943 289.464L203.688 296.928C203.638 297.009 203.569 297.077 203.487 297.123C203.404 297.169 203.312 297.193 203.218 297.192H203.171C203.073 297.199 202.976 297.178 202.889 297.131C202.802 297.085 202.729 297.014 202.679 296.928L197.424 289.488V303.288C197.407 303.432 197.34 303.565 197.234 303.662C197.128 303.758 196.991 303.811 196.849 303.811C196.707 303.811 196.57 303.758 196.464 303.662C196.358 303.565 196.291 303.432 196.274 303.288V287.736C196.273 287.646 196.294 287.557 196.335 287.478C196.376 287.398 196.436 287.33 196.509 287.28C196.509 287.28 196.509 287.28 196.556 287.232C196.68 287.153 196.829 287.124 196.974 287.151C197.118 287.177 197.248 287.258 197.338 287.376L203.179 295.656L208.997 287.376C209.086 287.256 209.216 287.175 209.361 287.148C209.506 287.121 209.655 287.151 209.779 287.232C209.841 287.29 209.896 287.354 209.944 287.424C209.995 287.52 210.027 287.627 210.037 287.736V303.288C210.035 303.44 209.975 303.585 209.87 303.693C209.765 303.801 209.623 303.862 209.474 303.864C209.4 303.865 209.326 303.851 209.258 303.822C209.189 303.794 209.126 303.751 209.074 303.698C209.021 303.644 208.98 303.58 208.952 303.51C208.924 303.439 208.91 303.364 208.911 303.288L208.943 289.464Z" fill="white"/>
<path d="M225.881 299.52H218.397L216.942 303.52C216.901 303.632 216.828 303.729 216.731 303.798C216.635 303.867 216.52 303.904 216.403 303.904H216.192C216.045 303.842 215.928 303.723 215.866 303.573C215.805 303.423 215.804 303.255 215.863 303.104L221.564 287.528C221.615 287.42 221.695 287.329 221.795 287.265C221.895 287.202 222.01 287.168 222.127 287.168C222.246 287.162 222.363 287.193 222.464 287.257C222.565 287.322 222.644 287.416 222.69 287.528L228.391 303.104C228.423 303.177 228.441 303.256 228.443 303.336C228.445 303.416 228.432 303.495 228.403 303.57C228.375 303.644 228.332 303.712 228.278 303.77C228.223 303.827 228.158 303.873 228.086 303.904C227.992 303.904 227.945 303.904 227.875 303.904C227.758 303.9 227.645 303.862 227.549 303.794C227.453 303.726 227.379 303.631 227.335 303.52L225.881 299.52ZM218.843 298.344H225.482L222.174 289.32L218.843 298.344Z" fill="white"/>
<path d="M241.27 286.824C243.188 286.826 245.052 287.476 246.572 288.672C246.633 288.72 246.684 288.781 246.721 288.849C246.759 288.918 246.783 288.994 246.792 289.072C246.801 289.15 246.794 289.229 246.772 289.305C246.751 289.38 246.715 289.451 246.666 289.512C246.624 289.574 246.569 289.626 246.506 289.666C246.443 289.705 246.373 289.732 246.3 289.743C246.227 289.754 246.153 289.75 246.081 289.731C246.01 289.712 245.943 289.678 245.884 289.632C244.568 288.591 242.95 288.028 241.286 288.032C239.382 288.032 237.556 288.806 236.21 290.183C234.864 291.56 234.107 293.428 234.107 295.376C234.107 297.324 234.864 299.192 236.21 300.569C237.556 301.946 239.382 302.72 241.286 302.72C242.941 302.755 244.553 302.188 245.837 301.12C245.96 301.035 246.111 301.003 246.257 301.03C246.403 301.057 246.533 301.141 246.619 301.264C246.672 301.322 246.713 301.391 246.738 301.466C246.764 301.541 246.773 301.621 246.767 301.7C246.76 301.779 246.737 301.856 246.7 301.926C246.662 301.995 246.611 302.056 246.549 302.104C245.027 303.293 243.163 303.935 241.247 303.928C239.038 303.928 236.92 303.03 235.358 301.433C233.796 299.835 232.919 297.668 232.919 295.408C232.919 293.148 233.796 290.981 235.358 289.383C236.92 287.786 239.038 286.888 241.247 286.888L241.27 286.824Z" fill="white"/>
<path d="M257.927 295.8L252.414 288.096C252.337 287.97 252.307 287.82 252.329 287.674C252.35 287.527 252.422 287.393 252.531 287.296C252.588 287.247 252.653 287.211 252.724 287.19C252.795 287.168 252.869 287.162 252.943 287.171C253.016 287.18 253.087 287.204 253.15 287.242C253.214 287.28 253.27 287.331 253.313 287.392L258.451 294.592L263.612 287.392C263.656 287.331 263.711 287.28 263.775 287.242C263.839 287.204 263.91 287.18 263.983 287.171C264.056 287.162 264.13 287.168 264.201 287.19C264.272 287.211 264.338 287.247 264.394 287.296C264.513 287.387 264.591 287.522 264.613 287.671C264.635 287.821 264.599 287.974 264.511 288.096L259.037 295.752V303.288C259.039 303.364 259.025 303.439 258.997 303.51C258.969 303.58 258.927 303.644 258.875 303.698C258.822 303.751 258.76 303.794 258.691 303.822C258.622 303.851 258.549 303.865 258.474 303.864C258.326 303.862 258.184 303.801 258.079 303.693C257.973 303.585 257.913 303.44 257.911 303.288L257.927 295.8Z" fill="white"/>
<path d="M339.474 279.68H51.5182V280.48H339.474V279.68Z" fill="white"/>
<path d="M339.474 277.376H51.5182V278.176H339.474V277.376Z" fill="white"/>
<path d="M339.474 312.72H51.5182V313.52H339.474V312.72Z" fill="white"/>
<path d="M339.474 310.408H51.5182V311.208H339.474V310.408Z" fill="white"/>
<path d="M197.893 246.608H193.107V267.552H197.893V246.608Z" fill="#EBEBEB"/>
<path d="M205.736 259.528V254.632H185.264V259.528H205.736Z" fill="#EBEBEB"/>
<path d="M334.555 302.68C334.555 302.68 346.981 299.792 353.792 293.376C360.604 286.96 364.412 275.448 364.412 275.448C359.688 276.379 355.03 277.633 350.469 279.2C348.761 280.997 347.339 283.057 346.254 285.304C346.147 283.853 346.147 282.395 346.254 280.944C344.663 281.647 343.173 282.57 341.828 283.688C336.15 288.736 334.555 302.68 334.555 302.68Z" fill="#389F18"/>
<path d="M356.655 281.04C358.344 279.84 360.072 278.688 361.753 277.472C361.775 277.458 361.791 277.436 361.796 277.411C361.802 277.385 361.798 277.358 361.784 277.336C361.771 277.314 361.749 277.298 361.724 277.292C361.7 277.286 361.673 277.29 361.652 277.304C358.453 279.264 355.294 281.352 352.268 283.544C351.204 284.304 350.164 285.104 349.14 285.944L349.358 285.568C349.734 284.928 350.141 284.304 350.516 283.68C351.297 282.404 352.181 281.197 353.159 280.072C353.159 280.032 353.159 279.968 353.096 280.016C352.127 281.152 351.165 282.288 350.281 283.496C349.859 284.072 349.499 284.672 349.1 285.28C348.908 285.589 348.72 285.909 348.537 286.24C348.483 286.344 348.412 286.456 348.35 286.568C346.786 287.856 345.222 289.2 343.658 290.624C342.735 291.504 341.843 292.416 340.983 293.36C341.468 291.816 341.883 290.264 342.446 288.744C342.446 288.696 342.383 288.672 342.36 288.744C341.82 290.344 341.226 291.944 340.796 293.544C339.842 294.611 338.934 295.704 338.074 296.824L338.121 296.616C338.262 296.016 338.403 295.416 338.559 294.824C338.864 293.672 339.192 292.528 339.576 291.4C340.286 289.057 341.419 286.87 342.915 284.952C342.915 284.952 342.915 284.848 342.852 284.888C340.526 287.86 338.896 291.339 338.09 295.056C337.96 295.589 337.834 296.123 337.715 296.656C337.652 296.944 337.574 297.24 337.527 297.536C337.151 298.056 336.784 298.584 336.432 299.136C334.314 302.448 332.549 305.983 331.169 309.68C329.617 313.843 328.288 318.089 327.189 322.4C327.189 322.417 327.195 322.433 327.207 322.445C327.219 322.457 327.235 322.464 327.251 322.464C327.268 322.464 327.284 322.457 327.296 322.445C327.307 322.433 327.314 322.417 327.314 322.4C329.746 314.96 332.225 307.416 336.393 300.8C337.268 299.397 338.213 298.04 339.224 296.736C341.283 296.6 343.316 296.186 345.269 295.504C347.404 294.772 349.44 293.766 351.329 292.512C352.412 291.768 353.456 290.967 354.457 290.112C354.461 290.108 354.465 290.104 354.467 290.099C354.469 290.094 354.471 290.088 354.471 290.083C354.472 290.077 354.471 290.072 354.469 290.066C354.467 290.061 354.465 290.056 354.461 290.052C354.457 290.048 354.453 290.044 354.448 290.042C354.443 290.039 354.438 290.038 354.433 290.038C354.427 290.037 354.422 290.038 354.416 290.04C354.411 290.042 354.407 290.044 354.402 290.048C352.668 291.48 350.753 292.666 348.709 293.576C346.703 294.513 344.606 295.235 342.453 295.728C341.539 295.928 340.608 296.08 339.677 296.208C340.81 294.74 342.019 293.336 343.298 292C343.72 291.568 344.15 291.2 344.588 290.744C346.036 289.708 347.572 288.808 349.179 288.056C351.212 287.048 353.222 285.984 355.239 284.936C356.373 284.344 357.499 283.736 358.649 283.16C358.696 283.16 358.649 283.064 358.602 283.088C356.561 284.096 354.488 285.04 352.424 286.008C350.485 286.92 348.514 287.832 346.661 288.904C346.575 288.904 346.504 289 346.426 289.04C348.107 287.544 349.851 286.112 351.634 284.736C353.284 283.488 354.95 282.24 356.655 281.04Z" fill="#263238"/>
<path d="M355.943 287.592C354.934 288.048 353.902 288.448 352.901 288.928C351.9 289.408 350.899 290 349.922 290.592C349.882 290.592 349.922 290.68 349.922 290.656C350.915 290.168 351.916 289.72 352.901 289.208C353.886 288.696 354.903 288.144 355.927 287.68C355.937 287.678 355.945 287.673 355.952 287.667C355.958 287.66 355.963 287.651 355.965 287.641C355.966 287.632 355.965 287.622 355.961 287.613C355.957 287.604 355.951 287.597 355.943 287.592Z" fill="#263238"/>
<path d="M294.181 238.6C296.476 241.631 297.776 245.327 297.895 249.16C297.934 250.304 297.754 251.888 297.629 253.76C300.739 255.597 303.495 257.999 305.762 260.848C303.28 259.376 300.431 258.678 297.567 258.84C297.629 260.117 297.788 261.388 298.044 262.64C299.852 262.648 301.641 263.012 303.314 263.712C301.682 263.693 300.063 264.02 298.56 264.672C300.773 271.872 307.357 279.296 325.547 282.44C327.473 273.596 326.334 264.343 322.325 256.264C316.851 245.296 294.181 238.6 294.181 238.6Z" fill="#389F18"/>
<path d="M331.818 313.296C331.5 310.213 331.107 307.141 330.637 304.08C329.717 297.951 328.493 291.874 326.97 285.872C326.258 283.063 325.381 280.3 324.342 277.6C324.397 277.103 324.42 276.604 324.413 276.104C324.413 275.512 324.413 274.912 324.413 274.32C324.413 273.128 324.35 271.92 324.248 270.752C324.064 268.399 323.69 266.066 323.13 263.776C322.794 262.448 322.411 261.144 322.028 259.832C322.028 259.784 321.934 259.832 321.949 259.832C322.554 262.12 323.003 264.448 323.294 266.8C323.619 269.113 323.822 271.441 323.904 273.776C323.904 274.416 323.904 275.056 323.904 275.696C323.904 275.968 323.904 276.24 323.904 276.496C323.01 274.273 321.986 272.106 320.839 270.008C318.981 266.682 316.89 263.497 314.583 260.48C314.576 260.128 314.526 259.779 314.434 259.44C314.348 259.024 314.262 258.64 314.169 258.192C313.981 257.344 313.77 256.504 313.551 255.656C313.097 253.976 312.503 252.344 311.987 250.68C311.983 250.671 311.977 250.664 311.969 250.659C311.962 250.654 311.953 250.651 311.944 250.651C311.935 250.651 311.926 250.654 311.918 250.659C311.91 250.664 311.904 250.671 311.901 250.68C312.386 252.328 312.683 254.04 313.074 255.712C313.254 256.512 313.433 257.376 313.605 258.208C313.699 258.616 313.785 259.008 313.871 259.448C313.868 259.48 313.868 259.512 313.871 259.544C313.136 258.595 312.386 257.659 311.619 256.736C308.147 252.576 304.339 248.736 300.507 244.912C300.038 244.448 299.553 243.984 299.076 243.528C299.037 243.488 298.982 243.528 299.013 243.592C302.681 247.496 306.286 251.448 309.695 255.592C310.477 256.568 311.306 257.568 312.096 258.576L310.853 257.776C309.797 257.064 308.726 256.376 307.623 255.744C306.521 255.112 305.402 254.496 304.268 253.92C303.134 253.344 301.86 252.848 300.734 252.176C300.687 252.176 300.64 252.232 300.695 252.256C301.845 252.796 302.953 253.424 304.01 254.136C305.121 254.797 306.221 255.48 307.31 256.184C308.382 256.88 309.453 257.56 310.517 258.272C311.4 258.856 312.268 259.496 313.191 260.04C315.312 262.815 317.271 265.716 319.056 268.728C320.155 270.622 321.16 272.571 322.067 274.568L321.41 274.28L319.744 273.48C318.681 272.992 317.601 272.52 316.53 272.048C314.489 271.136 312.417 270.304 310.415 269.304C309.289 268.764 308.199 268.146 307.154 267.456C307.107 267.456 307.068 267.496 307.115 267.528C310.845 270.16 315.021 272.008 319.15 273.88L320.941 274.68C321.425 274.904 321.918 275.152 322.426 275.344C323.661 278.15 324.698 281.043 325.531 284C327.162 289.924 328.483 295.932 329.488 302C330.536 308.072 331.24 314.192 331.787 320.336C331.85 321.136 331.92 321.864 332.006 322.632C332.016 322.689 332.046 322.741 332.089 322.778C332.133 322.815 332.188 322.836 332.244 322.836C332.301 322.836 332.356 322.815 332.4 322.778C332.443 322.741 332.473 322.689 332.483 322.632C332.444 319.52 332.131 316.392 331.818 313.296Z" fill="#263238"/>
<path d="M320.753 261.92C320.417 260.024 319.924 258.176 319.431 256.32C319.431 256.264 319.338 256.32 319.345 256.32C319.807 258.136 320.127 259.992 320.471 261.832C320.815 263.672 321.113 265.6 321.371 267.496C321.371 267.496 321.425 267.496 321.418 267.496C321.301 265.626 321.079 263.764 320.753 261.92Z" fill="#263238"/>
<path d="M312.917 267.048C311.651 266.197 310.329 265.435 308.96 264.768C308.296 264.416 307.623 264.088 306.958 263.752C306.294 263.416 305.543 263.128 304.855 262.776C304.808 262.776 304.769 262.824 304.855 262.848C305.52 263.192 306.153 263.6 306.802 263.968C307.451 264.336 308.147 264.768 308.82 265.096C310.157 265.824 311.463 266.64 312.855 267.232C312.875 267.232 312.896 267.225 312.912 267.212C312.929 267.2 312.942 267.182 312.948 267.162C312.955 267.142 312.956 267.121 312.95 267.1C312.945 267.08 312.933 267.062 312.917 267.048Z" fill="#263238"/>
<path opacity="0.1" d="M334.782 280.656C334.782 280.656 346.277 277.84 351.564 269.952C356.6 262.408 358.234 249.56 358.359 248.432C358.156 249.472 355.779 260.696 347.951 265.928C341.961 269.936 336.166 273.232 334.782 280.656Z" fill="#263238"/>
<path d="M345.394 260.328C343.347 262.25 341.877 264.727 341.155 267.472C341.155 267.472 341.155 267.472 341.155 267.472C342.002 264.795 343.463 262.364 345.417 260.384C345.488 260.352 345.433 260.288 345.394 260.328Z" fill="#263238"/>
<path d="M334.782 280.656C334.782 280.656 346.277 277.84 351.564 269.952C356.6 262.408 358.234 249.56 358.359 248.432C358.363 248.405 358.363 248.379 358.359 248.352C358.359 248.352 352.885 256.352 347.044 258.424C341.202 260.496 333.132 267.544 334.782 280.656Z" fill="#389F18"/>
<path d="M356.334 252.8C355.305 254.963 354.118 257.044 352.784 259.024C351.44 260.899 349.848 262.574 348.053 264C346.489 265.272 344.839 266.4 343.259 267.664V267.608C343.556 267.152 343.877 266.72 344.205 266.288C344.862 265.432 345.581 264.616 346.301 263.816C347.732 262.216 349.194 260.672 350.477 258.952C351.186 258.004 351.802 256.985 352.314 255.912C352.314 255.864 352.26 255.84 352.236 255.912C350.375 259.912 346.645 262.432 343.986 265.792C343.607 266.269 343.252 266.766 342.923 267.28C342.661 267.651 342.441 268.051 342.266 268.472C340.816 269.667 339.504 271.028 338.356 272.528C338.454 271.757 338.608 270.995 338.817 270.248C339.084 269.2 339.495 268.195 340.037 267.264C340.037 267.216 339.99 267.168 339.967 267.216C339.407 268.146 338.956 269.139 338.622 270.176C338.383 271.004 338.244 271.858 338.207 272.72C337.634 273.509 337.112 274.334 336.643 275.192C336.69 274.944 336.737 274.688 336.792 274.44C337.019 273.264 337.269 272.096 337.574 270.944C338.112 268.585 339.049 266.341 340.342 264.312C340.348 264.302 340.351 264.291 340.348 264.28C340.346 264.268 340.34 264.258 340.33 264.252C340.321 264.246 340.31 264.243 340.299 264.246C340.288 264.248 340.278 264.254 340.272 264.264C338.953 266.266 337.921 268.451 337.206 270.752C336.839 271.904 336.542 273.08 336.283 274.264C336.158 274.84 336.049 275.424 335.939 276.008C335.885 276.304 335.822 276.616 335.775 276.92C334.631 279.49 333.74 282.17 333.116 284.92C331.989 289.821 331.171 294.791 330.669 299.8C330.08 305.042 329.819 310.316 329.887 315.592C329.887 316.256 329.934 316.92 329.973 317.576C329.973 317.752 330.231 317.776 330.239 317.576C330.356 314.968 330.418 312.352 330.567 309.744C330.716 307.136 330.942 304.528 331.216 301.928C331.743 296.821 332.542 291.746 333.609 286.728C334.547 282.424 335.752 278.096 338.051 274.328C339.194 272.453 340.592 270.753 342.203 269.28C343.814 267.8 345.574 266.504 347.278 265.128C348.998 263.793 350.56 262.258 351.931 260.552C353.335 258.65 354.56 256.617 355.591 254.48L356.42 252.88C356.436 252.8 356.365 252.728 356.334 252.8Z" fill="#263238"/>
<path d="M354.355 254.504C353.599 256.087 352.742 257.619 351.79 259.088C351.79 259.088 351.79 259.152 351.845 259.088C352.831 257.634 353.697 256.098 354.434 254.496C354.457 254.48 354.379 254.456 354.355 254.504Z" fill="#263238"/>
<path d="M292.577 275.448C292.577 275.448 292.39 292.168 302.165 296.992C311.94 301.816 317.179 297.792 323.818 299.392C323.56 298.992 318.821 292.024 311.306 290.104C303.518 288.144 294.923 282.4 292.577 275.448Z" fill="#389F18"/>
<path opacity="0.1" d="M292.577 275.448C292.577 275.448 292.39 292.168 302.165 296.992C311.94 301.816 317.179 297.792 323.818 299.392C320.309 297.685 316.559 296.554 312.706 296.04C306.544 295.296 294.759 291.2 292.577 275.448Z" fill="black"/>
<path d="M324.46 299.72C323.29 298.633 321.973 297.725 320.55 297.024C320.338 296.92 320.127 296.84 319.908 296.744C319.689 296.648 319.697 296.488 319.58 296.36C319.291 296.048 318.986 295.752 318.665 295.464C318.05 294.924 317.391 294.44 316.694 294.016C315.076 293.04 313.308 292.36 311.65 291.456C311.641 291.455 311.632 291.457 311.623 291.462C311.615 291.467 311.608 291.474 311.604 291.482C311.6 291.491 311.598 291.501 311.6 291.51C311.601 291.52 311.605 291.529 311.611 291.536C312.393 291.968 313.222 292.448 314.012 292.92C314.802 293.392 315.576 293.824 316.358 294.32C317.038 294.765 317.683 295.263 318.29 295.808C318.462 295.96 318.626 296.128 318.798 296.296C317.715 295.925 316.61 295.626 315.49 295.4C313.699 295.032 311.893 294.768 310.11 294.376C309.233 294.187 308.366 293.949 307.514 293.664C306.732 292.992 305.895 292.328 305.129 291.608C304.196 290.741 303.35 289.782 302.603 288.744C302.603 288.696 302.493 288.744 302.532 288.784C303.716 290.427 305.057 291.943 306.536 293.312C306.114 293.144 305.699 292.968 305.285 292.776C301.929 291.238 299.049 288.789 296.957 285.696C296.957 285.648 296.855 285.696 296.886 285.736C298.662 288.391 300.954 290.643 303.619 292.352C304.956 293.209 306.386 293.902 307.881 294.416C309.613 294.963 311.379 295.391 313.168 295.696C314.921 295.986 316.651 296.405 318.344 296.952C319.904 297.493 321.372 298.281 322.692 299.288C325.182 301.267 327.187 303.812 328.55 306.72C330.293 310.578 331.383 314.712 331.771 318.944C331.771 319.128 332.061 319.128 332.053 318.944C331.568 311.912 329.754 304.6 324.46 299.72Z" fill="#263238"/>
<path d="M313.121 294.264C312.609 293.484 311.919 292.844 311.111 292.4C310.183 291.906 309.367 291.216 308.718 290.376C308.718 290.336 308.616 290.376 308.648 290.424C309.235 291.191 309.95 291.846 310.759 292.36C311.648 292.839 312.431 293.501 313.058 294.304C313.082 294.344 313.144 294.304 313.121 294.264Z" fill="#263238"/>
<path d="M318.305 312.056L318.751 321.248L320.112 349.344H340.616L341.976 321.248L342.422 312.056H318.305Z" fill="#455A64"/>
<path d="M318.305 312.056L318.751 321.248H341.976L342.422 312.056H318.305Z" fill="#263238"/>
<path d="M316.874 316.992H343.861V308.224H316.874V316.992Z" fill="#455A64"/>
<path d="M255.214 200H217.889V197.032L255.214 195.8V200Z" fill="#455A64"/>
<path d="M284.546 199.952H259.921C257.825 199.952 260.867 193.832 268.523 191.48C276.179 189.128 286.994 197.656 284.546 199.952Z" fill="#37474F"/>
<path d="M274.881 199.952C274.822 199.242 274.885 198.527 275.069 197.84C275.237 197.147 275.5 196.482 275.851 195.864C276.216 195.254 276.682 194.713 277.227 194.264C277.766 193.806 278.395 193.473 279.072 193.288C278.57 193.732 278.094 194.208 277.649 194.712C277.229 195.211 276.852 195.746 276.523 196.312C275.87 197.473 275.321 198.691 274.881 199.952Z" fill="#263238"/>
<path d="M277.805 194.128C278.564 194.284 279.301 194.531 280.003 194.864C280.712 195.191 281.39 195.585 282.028 196.04C282.678 196.503 283.256 197.064 283.741 197.704C284.259 198.332 284.537 199.131 284.523 199.952C284.246 199.246 283.812 198.616 283.256 198.112C282.727 197.593 282.157 197.119 281.551 196.696C280.37 195.808 279.08 195.024 277.805 194.128Z" fill="#263238"/>
<path d="M302.22 188.104H242.357L251.882 142.512H311.736L302.22 188.104Z" fill="#455A64"/>
<path d="M304.433 188.104H244.571L254.095 142.512H313.95L304.433 188.104Z" fill="#37474F"/>
<path d="M272.144 171.76H270.744L272.871 161.528H274.279L272.144 171.76Z" fill="#263238"/>
<path d="M274.92 171.76H273.512L275.647 161.528H277.047L274.92 171.76Z" fill="#263238"/>
<path d="M277.688 171.76H276.281L278.415 161.528H279.815L277.688 171.76Z" fill="#263238"/>
<path d="M280.456 171.76H279.049L281.184 161.528H282.583L280.456 171.76Z" fill="#263238"/>
<path d="M283.225 171.76H281.825L283.952 161.528H285.36L283.225 171.76Z" fill="#263238"/>
<path d="M285.993 171.76H284.593L286.72 161.528H288.128L285.993 171.76Z" fill="#263238"/>
<path d="M288.761 171.76H287.362L289.489 161.528H290.896L288.761 171.76Z" fill="#263238"/>
<path d="M287.502 200.008H258.06V197.672L287.502 196.696V200.008Z" fill="#455A64"/>
<path d="M295.502 200.008H279.698L270.181 174.464H285.985L295.502 200.008Z" fill="#455A64"/>
<path d="M298.106 200.008H282.302L272.785 174.464H288.589L298.106 200.008Z" fill="#263238"/>
</svg>
